<svg xmlns="http://www.w3.org/2000/svg" width="1500.00" height="500.00" viewBox="0 0 1500.00 500.00" fill="none" role="img" aria-label="TrackTub"><rect width="1500" height="500" fill="#08090A"/><rect width="1500" height="500" fill="url(#g)"/><defs><radialGradient id="g" cx="50%" cy="0%" r="80%"><stop offset="0%" stop-color="#3B82F6" stop-opacity="0.10"/><stop offset="60%" stop-color="#3B82F6" stop-opacity="0"/></radialGradient></defs><g transform="translate(311.33 113.46) scale(1.4003)"><g transform="translate(-33.475 -53.561) scale(3.3475)"><path d="M10 40 q5.5 -3.5 11 0 t11 0 t11 0 t11 0" stroke="#3B82F6" stroke-width="2" fill="none"/><path d="M14 46 q5 -2.2 10 0 t10 0 t10 0 t10 0" stroke="#3B82F6" stroke-width="1.2" fill="none" opacity="0.55"/><path d="M16 30 L26 40" stroke="#EDEDEF" stroke-width="5.5" stroke-linecap="square"/><path d="M26 40 L48 16" stroke="#EDEDEF" stroke-width="5.5" stroke-linecap="square"/></g><g transform="translate(187.924 16.622)"><g transform="translate(-4.053 72.754)"><path d="M26.514-61.768L4.053-61.768L4.053-72.754L61.963-72.754L61.963-61.768L39.551-61.768L39.551 0L26.514 0L26.514-61.768Z M82.449 0L69.754 0L69.754-54.590L82.059-54.590L82.059-45.459L82.645-45.459Q84.109-50.195 87.771-52.759Q91.434-55.322 96.121-55.322L96.121-55.322Q97.195-55.322 98.514-55.225Q99.832-55.127 100.760-54.980L100.760-54.980L100.760-43.311Q99.979-43.555 98.221-43.750Q96.463-43.945 94.754-43.945L94.754-43.945Q91.238-43.945 88.431-42.432Q85.623-40.918 84.036-38.257Q82.449-35.596 82.449-32.129L82.449-32.129L82.449 0Z M121.686 1.123L121.686 1.123Q116.510 1.123 112.359-0.757Q108.209-2.637 105.816-6.299Q103.424-9.961 103.424-15.332L103.424-15.332Q103.424-19.971 105.157-22.998Q106.891-26.025 109.845-27.832Q112.799-29.639 116.510-30.566Q120.221-31.494 124.225-31.885L124.225-31.885Q128.961-32.422 131.939-32.813Q134.918-33.203 136.310-34.082Q137.701-34.961 137.701-36.816L137.701-36.816L137.701-37.061Q137.701-39.746 136.627-41.626Q135.553-43.506 133.429-44.507Q131.305-45.508 128.180-45.508L128.180-45.508Q125.006-45.508 122.687-44.531Q120.367-43.555 118.902-41.992Q117.438-40.430 116.754-38.623L116.754-38.623L104.986-41.016Q106.598-45.850 109.967-48.999Q113.336-52.148 117.999-53.711Q122.662-55.273 128.131-55.273L128.131-55.273Q131.988-55.273 135.919-54.370Q139.850-53.467 143.121-51.318Q146.393-49.170 148.395-45.557Q150.396-41.943 150.396-36.475L150.396-36.475L150.396 0L138.238 0L138.238-7.520L137.750-7.520Q136.529-5.225 134.405-3.247Q132.281-1.270 129.132-0.073Q125.982 1.123 121.686 1.123ZM124.957-8.301L124.957-8.301Q128.912-8.301 131.769-9.863Q134.625-11.426 136.212-13.989Q137.799-16.553 137.799-19.580L137.799-19.580L137.799-26.025Q137.164-25.537 135.675-25.098Q134.186-24.658 132.354-24.316Q130.523-23.975 128.741-23.730Q126.959-23.486 125.738-23.340L125.738-23.340Q122.906-22.949 120.611-22.070Q118.316-21.191 117.022-19.604Q115.729-18.018 115.729-15.479L115.729-15.479Q115.729-13.135 116.925-11.548Q118.121-9.961 120.196-9.131Q122.271-8.301 124.957-8.301Z M184.555 1.123L184.555 1.123Q176.596 1.123 170.736-2.417Q164.877-5.957 161.679-12.280Q158.480-18.604 158.480-27.002L158.480-27.002Q158.480-35.498 161.679-41.870Q164.877-48.242 170.736-51.758Q176.596-55.273 184.555-55.273L184.555-55.273Q189.096-55.273 193.002-54.102Q196.908-52.930 199.984-50.708Q203.061-48.486 205.136-45.313Q207.211-42.139 208.090-38.135L208.090-38.135L196.225-35.645Q195.688-37.744 194.687-39.478Q193.686-41.211 192.221-42.432Q190.756-43.652 188.852-44.312Q186.947-44.971 184.652-44.971L184.652-44.971Q180.209-44.971 177.279-42.603Q174.350-40.234 172.885-36.206Q171.420-32.178 171.420-27.051L171.420-27.051Q171.420-22.021 172.885-17.969Q174.350-13.916 177.279-11.548Q180.209-9.180 184.652-9.180L184.652-9.180Q186.996-9.180 188.925-9.863Q190.854-10.547 192.343-11.816Q193.832-13.086 194.857-14.893Q195.883-16.699 196.371-18.896L196.371-18.896L208.236-16.406Q207.357-12.305 205.282-9.082Q203.207-5.859 200.106-3.589Q197.006-1.318 193.075-0.098Q189.145 1.123 184.555 1.123Z M237.561-27.686L227.746-17.188L227.746-32.568L229.748-32.568L249.426-54.590L264.318-54.590L240.197-27.686L237.561-27.686ZM228.820 0L216.125 0L216.125-72.754L228.820-72.754L228.820 0ZM265.588 0L250.354 0L232.482-24.854L241.076-33.838L265.588 0Z" fill="#EDEDEF"/><path d="M289.834-61.768L267.373-61.768L267.373-72.754L325.283-72.754L325.283-61.768L302.871-61.768L302.871 0L289.834 0L289.834-61.768Z M351.775 0.684L351.775 0.684Q346.160 0.684 341.937-1.709Q337.713-4.102 335.394-8.716Q333.074-13.330 333.074-19.873L333.074-19.873L333.074-54.590L345.770-54.590L345.770-21.826Q345.770-16.357 348.626-13.232Q351.482-10.107 356.463-10.107L356.463-10.107Q359.832-10.107 362.469-11.572Q365.105-13.037 366.595-15.869Q368.084-18.701 368.084-22.607L368.084-22.607L368.084-54.590L380.828-54.590L380.828 0L368.768 0L368.621-13.477L369.598-13.477Q367.303-6.348 362.811-2.832Q358.318 0.684 351.775 0.684Z M420.113 0.977L420.113 0.977Q415.475 0.977 412.350-0.610Q409.225-2.197 407.369-4.443Q405.514-6.689 404.537-8.643L404.537-8.643L403.707-8.643L403.707 0L391.305 0L391.305-72.754L404-72.754L404-45.557L404.537-45.557Q405.514-47.510 407.320-49.756Q409.127-52.002 412.228-53.638Q415.328-55.273 420.162-55.273L420.162-55.273Q426.510-55.273 431.588-52.051Q436.666-48.828 439.669-42.554Q442.672-36.279 442.672-27.197L442.672-27.197Q442.672-18.213 439.742-11.914Q436.813-5.615 431.710-2.319Q426.607 0.977 420.113 0.977ZM416.695-9.473L416.695-9.473Q420.943-9.473 423.824-11.792Q426.705-14.111 428.170-18.140Q429.635-22.168 429.635-27.246L429.635-27.246Q429.635-32.324 428.194-36.304Q426.754-40.283 423.873-42.554Q420.992-44.824 416.695-44.824L416.695-44.824Q412.496-44.824 409.615-42.627Q406.734-40.430 405.245-36.499Q403.756-32.568 403.756-27.246L403.756-27.246Q403.756-21.924 405.245-17.920Q406.734-13.916 409.640-11.694Q412.545-9.473 416.695-9.473Z" fill="#3B82F6"/></g></g></g><g transform="translate(375.00 303.46) scale(1.1582)"><g transform="translate(0.000 22.852)"><path d="M11.616 0.293L11.616 0.293Q8.599 0.293 6.328-1.069Q4.058-2.432 2.783-4.937Q1.509-7.441 1.509-10.884L1.509-10.884Q1.509-14.414 2.820-16.926Q4.131-19.438 6.387-20.779Q8.643-22.119 11.499-22.119L11.499-22.119Q13.301-22.119 14.861-21.592Q16.421-21.064 17.644-20.090Q18.867-19.116 19.651-17.783Q20.435-16.450 20.684-14.854L20.684-14.854L16.685-14.854Q16.421-15.732 15.959-16.421Q15.498-17.109 14.846-17.607Q14.194-18.105 13.367-18.362Q12.539-18.618 11.543-18.618L11.543-18.618Q9.785-18.618 8.401-17.725Q7.017-16.831 6.226-15.117Q5.435-13.403 5.435-10.913L5.435-10.913Q5.435-8.452 6.226-6.731Q7.017-5.010 8.408-4.109Q9.800-3.208 11.631-3.208L11.631-3.208Q13.301-3.208 14.524-3.853Q15.747-4.497 16.414-5.684Q17.080-6.870 17.080-8.481L17.080-8.481L17.974-8.335L12.041-8.335L12.041-11.411L20.874-11.411L20.874-8.789Q20.874-5.991 19.680-3.948Q18.486-1.904 16.399-0.806Q14.312 0.293 11.616 0.293Z M29.803 0.205L29.803 0.205Q28.118 0.205 26.851-0.513Q25.584-1.230 24.888-2.615Q24.192-3.999 24.192-5.962L24.192-5.962L24.192-16.377L28.001-16.377L28.001-6.548Q28.001-4.907 28.858-3.970Q29.715-3.032 31.209-3.032L31.209-3.032Q32.220-3.032 33.011-3.472Q33.802-3.911 34.248-4.761Q34.695-5.610 34.695-6.782L34.695-6.782L34.695-16.377L38.518-16.377L38.518 0L34.900 0L34.856-4.043L35.149-4.043Q34.461-1.904 33.113-0.850Q31.765 0.205 29.803 0.205Z M49.498 0.337L49.498 0.337Q47.022 0.337 45.242-0.703Q43.462-1.743 42.503-3.633Q41.544-5.522 41.544-8.086L41.544-8.086Q41.544-10.620 42.488-12.524Q43.433-14.429 45.169-15.505Q46.905-16.582 49.249-16.582L49.249-16.582Q50.743-16.582 52.098-16.099Q53.453-15.615 54.500-14.604Q55.547-13.594 56.141-12.034Q56.734-10.474 56.734-8.320L56.734-8.320L56.734-7.119L43.345-7.119L43.345-9.712L54.844-9.712L53.057-8.950Q53.057-10.327 52.632-11.375Q52.208-12.422 51.365-13.008Q50.523-13.594 49.263-13.594L49.263-13.594Q48.004-13.594 47.125-13.000Q46.246-12.407 45.784-11.418Q45.323-10.430 45.323-9.214L45.323-9.214L45.323-7.427Q45.323-5.874 45.850-4.805Q46.378-3.735 47.330-3.193Q48.282-2.651 49.542-2.651L49.542-2.651Q50.377-2.651 51.058-2.893Q51.739-3.135 52.237-3.611Q52.735-4.087 52.984-4.775L52.984-4.775L56.485-4.058Q56.089-2.739 55.137-1.750Q54.185-0.762 52.757-0.212Q51.329 0.337 49.498 0.337Z M65.897 0.337L65.897 0.337Q64.007 0.337 62.557-0.205Q61.107-0.747 60.177-1.787Q59.246-2.827 58.968-4.307L58.968-4.307L62.528-4.980Q62.865-3.765 63.722-3.171Q64.579-2.578 65.970-2.578L65.970-2.578Q67.376-2.578 68.204-3.142Q69.032-3.706 69.032-4.541L69.032-4.541Q69.032-5.244 68.490-5.706Q67.948-6.167 66.820-6.416L66.820-6.416L64.022-7.017Q61.707-7.515 60.565-8.657Q59.422-9.800 59.422-11.602L59.422-11.602Q59.422-13.125 60.257-14.238Q61.092-15.352 62.579-15.967Q64.066-16.582 66.029-16.582L66.029-16.582Q67.889-16.582 69.229-16.055Q70.570-15.527 71.397-14.583Q72.225-13.638 72.547-12.363L72.547-12.363L69.149-11.689Q68.871-12.554 68.138-13.147Q67.406-13.740 66.073-13.740L66.073-13.740Q64.857-13.740 64.044-13.206Q63.231-12.671 63.231-11.836L63.231-11.836Q63.231-11.118 63.773-10.649Q64.315-10.181 65.560-9.917L65.560-9.917L68.343-9.331Q70.672-8.833 71.800-7.734Q72.928-6.636 72.928-4.907L72.928-4.907Q72.928-3.354 72.035-2.175Q71.141-0.996 69.552-0.330Q67.962 0.337 65.897 0.337Z M74.152-16.377L83.453-16.377L83.453-13.389L74.152-13.389L74.152-16.377ZM76.481-4.292L76.481-20.273L80.289-20.273L80.289-4.614Q80.289-3.721 80.670-3.303Q81.051-2.886 81.915-2.886L81.915-2.886Q82.179-2.886 82.611-2.952Q83.043-3.018 83.307-3.076L83.307-3.076L83.907-0.132Q83.278 0.059 82.618 0.139Q81.959 0.220 81.359 0.220L81.359 0.220Q79.000 0.220 77.740-0.952Q76.481-2.124 76.481-4.292L76.481-4.292Z M86.215-10.664L96.029-10.664L96.029-7.515L86.215-7.515L86.215-10.664Z M103.639 0L99.831 0L99.831-16.377L103.522-16.377L103.522-13.638L103.698-13.638Q104.138-15.059 105.236-15.828Q106.335-16.597 107.741-16.597L107.741-16.597Q108.063-16.597 108.459-16.567Q108.854-16.538 109.133-16.494L109.133-16.494L109.133-12.993Q108.898-13.066 108.371-13.125Q107.844-13.184 107.331-13.184L107.331-13.184Q106.276-13.184 105.434-12.729Q104.592-12.275 104.116-11.477Q103.639-10.679 103.639-9.639L103.639-9.639L103.639 0Z M118.676 0.337L118.676 0.337Q116.201 0.337 114.421-0.703Q112.641-1.743 111.682-3.633Q110.722-5.522 110.722-8.086L110.722-8.086Q110.722-10.620 111.667-12.524Q112.612-14.429 114.348-15.505Q116.084-16.582 118.427-16.582L118.427-16.582Q119.921-16.582 121.276-16.099Q122.631-15.615 123.679-14.604Q124.726-13.594 125.319-12.034Q125.913-10.474 125.913-8.320L125.913-8.320L125.913-7.119L112.524-7.119L112.524-9.712L124.023-9.712L122.236-8.950Q122.236-10.327 121.811-11.375Q121.386-12.422 120.544-13.008Q119.702-13.594 118.442-13.594L118.442-13.594Q117.182-13.594 116.303-13.000Q115.424-12.407 114.963-11.418Q114.502-10.430 114.502-9.214L114.502-9.214L114.502-7.427Q114.502-5.874 115.029-4.805Q115.556-3.735 116.508-3.193Q117.461-2.651 118.720-2.651L118.720-2.651Q119.555-2.651 120.236-2.893Q120.918-3.135 121.416-3.611Q121.914-4.087 122.163-4.775L122.163-4.775L125.664-4.058Q125.268-2.739 124.316-1.750Q123.364-0.762 121.936-0.212Q120.507 0.337 118.676 0.337Z M133.450 0.337L133.450 0.337Q131.897 0.337 130.652-0.227Q129.407-0.791 128.689-1.890Q127.971-2.988 127.971-4.600L127.971-4.600Q127.971-5.991 128.491-6.899Q129.011-7.808 129.897-8.350Q130.784-8.892 131.897-9.170Q133.010-9.448 134.211-9.565L134.211-9.565Q135.632-9.727 136.526-9.844Q137.419-9.961 137.837-10.225Q138.254-10.488 138.254-11.045L138.254-11.045L138.254-11.118Q138.254-11.924 137.932-12.488Q137.610-13.052 136.973-13.352Q136.335-13.652 135.398-13.652L135.398-13.652Q134.446-13.652 133.750-13.359Q133.054-13.066 132.615-12.598Q132.175-12.129 131.970-11.587L131.970-11.587L128.440-12.305Q128.923-13.755 129.934-14.700Q130.945-15.645 132.344-16.113Q133.743-16.582 135.383-16.582L135.383-16.582Q136.540-16.582 137.720-16.311Q138.899-16.040 139.880-15.396Q140.862-14.751 141.462-13.667Q142.063-12.583 142.063-10.942L142.063-10.942L142.063 0L138.415 0L138.415-2.256L138.269-2.256Q137.903-1.567 137.266-0.974Q136.628-0.381 135.683-0.022Q134.739 0.337 133.450 0.337ZM134.431-2.490L134.431-2.490Q135.618-2.490 136.475-2.959Q137.331-3.428 137.808-4.197Q138.284-4.966 138.284-5.874L138.284-5.874L138.284-7.808Q138.093-7.661 137.646-7.529Q137.200-7.397 136.650-7.295Q136.101-7.192 135.566-7.119Q135.032-7.046 134.665-7.002L134.665-7.002Q133.816-6.885 133.127-6.621Q132.439-6.357 132.051-5.881Q131.663-5.405 131.663-4.644L131.663-4.644Q131.663-3.940 132.021-3.464Q132.380-2.988 133.003-2.739Q133.625-2.490 134.431-2.490Z M151.841 0.293L151.841 0.293Q149.907 0.293 148.377-0.696Q146.846-1.685 145.967-3.574Q145.088-5.464 145.088-8.159L145.088-8.159Q145.088-10.884 145.989-12.766Q146.890-14.648 148.421-15.615Q149.951-16.582 151.826-16.582L151.826-16.582Q153.291-16.582 154.221-16.091Q155.152-15.601 155.701-14.927Q156.250-14.253 156.529-13.667L156.529-13.667L156.690-13.667L156.690-21.826L160.498-21.826L160.498 0L156.763 0L156.763-2.593L156.529-2.593Q156.236-2.007 155.672-1.333Q155.108-0.659 154.185-0.183Q153.262 0.293 151.841 0.293ZM152.881-2.842L152.881-2.842Q154.126-2.842 154.990-3.508Q155.855-4.175 156.309-5.376Q156.763-6.577 156.763-8.174L156.763-8.174Q156.763-9.771 156.316-10.950Q155.869-12.129 154.998-12.788Q154.126-13.447 152.881-13.447L152.881-13.447Q151.592-13.447 150.728-12.766Q149.863-12.085 149.424-10.891Q148.985-9.697 148.985-8.174L148.985-8.174Q148.985-6.650 149.424-5.442Q149.863-4.233 150.735-3.538Q151.607-2.842 152.881-2.842Z M164.065 5.845L164.065 5.845L164.959 2.871L165.413 2.988Q166.277 3.208 166.951 3.113Q167.625 3.018 168.079 2.527Q168.533 2.036 168.724 1.099L168.724 1.099L168.958 0.059L162.776-16.377L166.849-16.377L169.837-7.471Q170.364-5.889 170.701-4.321Q171.038-2.754 171.448-1.113L171.448-1.113L170.452-1.113Q170.848-2.754 171.243-4.329Q171.639-5.903 172.166-7.471L172.166-7.471L175.257-16.377L179.285-16.377L172.254 2.109Q171.756 3.413 171.009 4.343Q170.262 5.273 169.178 5.757Q168.094 6.240 166.614 6.240L166.614 6.240Q165.809 6.240 165.127 6.123Q164.446 6.006 164.065 5.845Z  M192.645-9.595L192.645-9.595L192.645 0L188.837 0L188.837-21.826L192.587-21.826L192.587-12.334L192.191-12.334Q192.879-14.458 194.212-15.520Q195.546-16.582 197.552-16.582L197.552-16.582Q199.237-16.582 200.504-15.864Q201.771-15.146 202.467-13.770Q203.163-12.393 203.163-10.415L203.163-10.415L203.163 0L199.339 0L199.339-9.829Q199.339-11.470 198.490-12.407Q197.640-13.345 196.146-13.345L196.146-13.345Q195.135-13.345 194.344-12.905Q193.553-12.466 193.099-11.624Q192.645-10.781 192.645-9.595Z M214.010 0.337L214.010 0.337Q211.622 0.337 209.865-0.725Q208.107-1.787 207.147-3.684Q206.188-5.581 206.188-8.101L206.188-8.101Q206.188-10.649 207.147-12.561Q208.107-14.473 209.865-15.527Q211.622-16.582 214.010-16.582L214.010-16.582Q216.412-16.582 218.170-15.527Q219.928-14.473 220.888-12.561Q221.847-10.649 221.847-8.101L221.847-8.101Q221.847-5.581 220.888-3.684Q219.928-1.787 218.170-0.725Q216.412 0.337 214.010 0.337ZM214.010-2.754L214.010-2.754Q215.343-2.754 216.229-3.472Q217.116-4.189 217.548-5.405Q217.980-6.621 217.980-8.115L217.980-8.115Q217.980-9.624 217.548-10.840Q217.116-12.056 216.229-12.773Q215.343-13.491 214.010-13.491L214.010-13.491Q212.677-13.491 211.806-12.773Q210.934-12.056 210.502-10.847Q210.070-9.639 210.070-8.115L210.070-8.115Q210.070-6.621 210.502-5.405Q210.934-4.189 211.806-3.472Q212.677-2.754 214.010-2.754Z M223.144-16.377L232.446-16.377L232.446-13.389L223.144-13.389L223.144-16.377ZM225.473-4.292L225.473-20.273L229.281-20.273L229.281-4.614Q229.281-3.721 229.662-3.303Q230.043-2.886 230.907-2.886L230.907-2.886Q231.171-2.886 231.603-2.952Q232.035-3.018 232.299-3.076L232.299-3.076L232.900-0.132Q232.270 0.059 231.611 0.139Q230.951 0.220 230.351 0.220L230.351 0.220Q227.992 0.220 226.733-0.952Q225.473-2.124 225.473-4.292L225.473-4.292Z  M240.693-16.377L249.995-16.377L249.995-13.389L240.693-13.389L240.693-16.377ZM243.022-4.292L243.022-20.273L246.831-20.273L246.831-4.614Q246.831-3.721 247.212-3.303Q247.593-2.886 248.457-2.886L248.457-2.886Q248.721-2.886 249.153-2.952Q249.585-3.018 249.848-3.076L249.848-3.076L250.449-0.132Q249.819 0.059 249.160 0.139Q248.501 0.220 247.900 0.220L247.900 0.220Q245.542 0.220 244.282-0.952Q243.022-2.124 243.022-4.292L243.022-4.292Z M258.323 0.205L258.323 0.205Q256.638 0.205 255.371-0.513Q254.104-1.230 253.408-2.615Q252.712-3.999 252.712-5.962L252.712-5.962L252.712-16.377L256.521-16.377L256.521-6.548Q256.521-4.907 257.378-3.970Q258.235-3.032 259.729-3.032L259.729-3.032Q260.740-3.032 261.531-3.472Q262.322-3.911 262.769-4.761Q263.215-5.610 263.215-6.782L263.215-6.782L263.215-16.377L267.039-16.377L267.039 0L263.421 0L263.377-4.043L263.670-4.043Q262.981-1.904 261.633-0.850Q260.286 0.205 258.323 0.205Z M279.424 0.293L279.424 0.293Q278.033 0.293 277.095-0.183Q276.158-0.659 275.601-1.333Q275.044-2.007 274.751-2.593L274.751-2.593L274.502-2.593L274.502 0L270.782 0L270.782-21.826L274.590-21.826L274.590-13.667L274.751-13.667Q275.044-14.253 275.586-14.927Q276.128-15.601 277.058-16.091Q277.989-16.582 279.439-16.582L279.439-16.582Q281.343-16.582 282.867-15.615Q284.390-14.648 285.291-12.766Q286.192-10.884 286.192-8.159L286.192-8.159Q286.192-5.464 285.313-3.574Q284.434-1.685 282.903-0.696Q281.372 0.293 279.424 0.293ZM278.399-2.842L278.399-2.842Q279.673-2.842 280.537-3.538Q281.402-4.233 281.841-5.442Q282.281-6.650 282.281-8.174L282.281-8.174Q282.281-9.697 281.849-10.891Q281.416-12.085 280.552-12.766Q279.688-13.447 278.399-13.447L278.399-13.447Q277.139-13.447 276.275-12.788Q275.411-12.129 274.964-10.950Q274.517-9.771 274.517-8.174L274.517-8.174Q274.517-6.577 274.964-5.376Q275.411-4.175 276.282-3.508Q277.154-2.842 278.399-2.842Z  M300.270 6.123L296.461 6.123L296.461-16.377L300.182-16.377L300.182-13.667L300.431-13.667Q300.724-14.253 301.266-14.927Q301.808-15.601 302.738-16.091Q303.668-16.582 305.118-16.582L305.118-16.582Q307.022-16.582 308.546-15.615Q310.069-14.648 310.970-12.766Q311.871-10.884 311.871-8.159L311.871-8.159Q311.871-5.464 310.992-3.574Q310.113-1.685 308.583-0.696Q307.052 0.293 305.104 0.293L305.104 0.293Q303.712 0.293 302.774-0.183Q301.837-0.659 301.280-1.333Q300.724-2.007 300.431-2.593L300.431-2.593L300.270-2.593L300.270 6.123ZM304.078-2.842L304.078-2.842Q305.353-2.842 306.217-3.538Q307.081-4.233 307.521-5.442Q307.960-6.650 307.960-8.174L307.960-8.174Q307.960-9.697 307.528-10.891Q307.096-12.085 306.231-12.766Q305.367-13.447 304.078-13.447L304.078-13.447Q302.818-13.447 301.954-12.788Q301.090-12.129 300.643-10.950Q300.196-9.771 300.196-8.174L300.196-8.174Q300.196-6.577 300.643-5.376Q301.090-4.175 301.961-3.508Q302.833-2.842 304.078-2.842Z M318.690 0L314.882 0L314.882-16.377L318.573-16.377L318.573-13.638L318.749-13.638Q319.188-15.059 320.287-15.828Q321.386-16.597 322.792-16.597L322.792-16.597Q323.114-16.597 323.510-16.567Q323.905-16.538 324.183-16.494L324.183-16.494L324.183-12.993Q323.949-13.066 323.422-13.125Q322.894-13.184 322.382-13.184L322.382-13.184Q321.327-13.184 320.485-12.729Q319.642-12.275 319.166-11.477Q318.690-10.679 318.690-9.639L318.690-9.639L318.690 0Z M333.595 0.337L333.595 0.337Q331.208 0.337 329.450-0.725Q327.692-1.787 326.733-3.684Q325.773-5.581 325.773-8.101L325.773-8.101Q325.773-10.649 326.733-12.561Q327.692-14.473 329.450-15.527Q331.208-16.582 333.595-16.582L333.595-16.582Q335.998-16.582 337.755-15.527Q339.513-14.473 340.473-12.561Q341.432-10.649 341.432-8.101L341.432-8.101Q341.432-5.581 340.473-3.684Q339.513-1.787 337.755-0.725Q335.998 0.337 333.595 0.337ZM333.595-2.754L333.595-2.754Q334.928-2.754 335.815-3.472Q336.701-4.189 337.133-5.405Q337.565-6.621 337.565-8.115L337.565-8.115Q337.565-9.624 337.133-10.840Q336.701-12.056 335.815-12.773Q334.928-13.491 333.595-13.491L333.595-13.491Q332.262-13.491 331.391-12.773Q330.519-12.056 330.087-10.847Q329.655-9.639 329.655-8.115L329.655-8.115Q329.655-6.621 330.087-5.405Q330.519-4.189 331.391-3.472Q332.262-2.754 333.595-2.754Z M351.562 0.337L351.562 0.337Q349.174 0.337 347.416-0.725Q345.659-1.787 344.699-3.684Q343.740-5.581 343.740-8.101L343.740-8.101Q343.740-10.649 344.699-12.561Q345.659-14.473 347.416-15.527Q349.174-16.582 351.562-16.582L351.562-16.582Q353.964-16.582 355.722-15.527Q357.480-14.473 358.439-12.561Q359.399-10.649 359.399-8.101L359.399-8.101Q359.399-5.581 358.439-3.684Q357.480-1.787 355.722-0.725Q353.964 0.337 351.562 0.337ZM351.562-2.754L351.562-2.754Q352.895-2.754 353.781-3.472Q354.667-4.189 355.100-5.405Q355.532-6.621 355.532-8.115L355.532-8.115Q355.532-9.624 355.100-10.840Q354.667-12.056 353.781-12.773Q352.895-13.491 351.562-13.491L351.562-13.491Q350.229-13.491 349.357-12.773Q348.486-12.056 348.054-10.847Q347.621-9.639 347.621-8.115L347.621-8.115Q347.621-6.621 348.054-5.405Q348.486-4.189 349.357-3.472Q350.229-2.754 351.562-2.754Z M360.696-16.377L371.037-16.377L371.037-13.389L360.696-13.389L360.696-16.377ZM367.492 0L363.698 0L363.698-17.944Q363.698-19.585 364.380-20.669Q365.061-21.753 366.225-22.302Q367.390-22.852 368.781-22.852L368.781-22.852Q369.792-22.852 370.569-22.690Q371.345-22.529 371.711-22.397L371.711-22.397L370.935-19.438Q370.686-19.512 370.327-19.592Q369.968-19.673 369.485-19.673L369.485-19.673Q368.415-19.673 367.954-19.146Q367.492-18.618 367.492-17.651L367.492-17.651L367.492 0Z  M379.314-16.377L389.656-16.377L389.656-13.389L379.314-13.389L379.314-16.377ZM386.111 0L382.317 0L382.317-17.944Q382.317-19.585 382.998-20.669Q383.679-21.753 384.844-22.302Q386.009-22.852 387.400-22.852L387.400-22.852Q388.411-22.852 389.187-22.690Q389.964-22.529 390.330-22.397L390.330-22.397L389.554-19.438Q389.304-19.512 388.946-19.592Q388.587-19.673 388.103-19.673L388.103-19.673Q387.034-19.673 386.573-19.146Q386.111-18.618 386.111-17.651L386.111-17.651L386.111 0Z M399.507 0.337L399.507 0.337Q397.120 0.337 395.362-0.725Q393.604-1.787 392.645-3.684Q391.685-5.581 391.685-8.101L391.685-8.101Q391.685-10.649 392.645-12.561Q393.604-14.473 395.362-15.527Q397.120-16.582 399.507-16.582L399.507-16.582Q401.910-16.582 403.668-15.527Q405.425-14.473 406.385-12.561Q407.344-10.649 407.344-8.101L407.344-8.101Q407.344-5.581 406.385-3.684Q405.425-1.787 403.668-0.725Q401.910 0.337 399.507 0.337ZM399.507-2.754L399.507-2.754Q400.840-2.754 401.727-3.472Q402.613-4.189 403.045-5.405Q403.477-6.621 403.477-8.115L403.477-8.115Q403.477-9.624 403.045-10.840Q402.613-12.056 401.727-12.773Q400.840-13.491 399.507-13.491L399.507-13.491Q398.174-13.491 397.303-12.773Q396.431-12.056 395.999-10.847Q395.567-9.639 395.567-8.115L395.567-8.115Q395.567-6.621 395.999-5.405Q396.431-4.189 397.303-3.472Q398.174-2.754 399.507-2.754Z M414.178 0L410.370 0L410.370-16.377L414.061-16.377L414.061-13.638L414.237-13.638Q414.676-15.059 415.775-15.828Q416.873-16.597 418.280-16.597L418.280-16.597Q418.602-16.597 418.997-16.567Q419.393-16.538 419.671-16.494L419.671-16.494L419.671-12.993Q419.437-13.066 418.910-13.125Q418.382-13.184 417.870-13.184L417.870-13.184Q416.815-13.184 415.973-12.729Q415.130-12.275 414.654-11.477Q414.178-10.679 414.178-9.639L414.178-9.639L414.178 0Z  M436.474 0.337L436.474 0.337Q433.998 0.337 432.218-0.703Q430.438-1.743 429.479-3.633Q428.520-5.522 428.520-8.086L428.520-8.086Q428.520-10.620 429.464-12.524Q430.409-14.429 432.145-15.505Q433.881-16.582 436.225-16.582L436.225-16.582Q437.719-16.582 439.074-16.099Q440.429-15.615 441.476-14.604Q442.523-13.594 443.117-12.034Q443.710-10.474 443.710-8.320L443.710-8.320L443.710-7.119L430.321-7.119L430.321-9.712L441.820-9.712L440.033-8.950Q440.033-10.327 439.608-11.375Q439.184-12.422 438.341-13.008Q437.499-13.594 436.239-13.594L436.239-13.594Q434.979-13.594 434.101-13.000Q433.222-12.407 432.760-11.418Q432.299-10.430 432.299-9.214L432.299-9.214L432.299-7.427Q432.299-5.874 432.826-4.805Q433.354-3.735 434.306-3.193Q435.258-2.651 436.518-2.651L436.518-2.651Q437.353-2.651 438.034-2.893Q438.715-3.135 439.213-3.611Q439.711-4.087 439.960-4.775L439.960-4.775L443.461-4.058Q443.065-2.739 442.113-1.750Q441.161-0.762 439.733-0.212Q438.305 0.337 436.474 0.337Z M455.583 0L451.320 0L445.226-16.377L449.299-16.377L452.287-7.471Q452.814-5.903 453.195-4.321Q453.576-2.739 453.971-1.113L453.971-1.113L453.019-1.113Q453.429-2.739 453.803-4.321Q454.177-5.903 454.689-7.471L454.689-7.471L457.663-16.377L461.706-16.377L455.583 0Z M471.220 0.337L471.220 0.337Q468.745 0.337 466.965-0.703Q465.185-1.743 464.226-3.633Q463.266-5.522 463.266-8.086L463.266-8.086Q463.266-10.620 464.211-12.524Q465.156-14.429 466.892-15.505Q468.628-16.582 470.971-16.582L470.971-16.582Q472.465-16.582 473.820-16.099Q475.175-15.615 476.223-14.604Q477.270-13.594 477.863-12.034Q478.457-10.474 478.457-8.320L478.457-8.320L478.457-7.119L465.068-7.119L465.068-9.712L476.567-9.712L474.780-8.950Q474.780-10.327 474.355-11.375Q473.930-12.422 473.088-13.008Q472.246-13.594 470.986-13.594L470.986-13.594Q469.726-13.594 468.847-13.000Q467.968-12.407 467.507-11.418Q467.046-10.430 467.046-9.214L467.046-9.214L467.046-7.427Q467.046-5.874 467.573-4.805Q468.100-3.735 469.052-3.193Q470.004-2.651 471.264-2.651L471.264-2.651Q472.099-2.651 472.780-2.893Q473.462-3.135 473.960-3.611Q474.458-4.087 474.707-4.775L474.707-4.775L478.208-4.058Q477.812-2.739 476.860-1.750Q475.908-0.762 474.480-0.212Q473.051 0.337 471.220 0.337Z M485.232 0L481.423 0L481.423-16.377L485.115-16.377L485.115-13.638L485.290-13.638Q485.730-15.059 486.829-15.828Q487.927-16.597 489.333-16.597L489.333-16.597Q489.656-16.597 490.051-16.567Q490.447-16.538 490.725-16.494L490.725-16.494L490.725-12.993Q490.491-13.066 489.963-13.125Q489.436-13.184 488.923-13.184L488.923-13.184Q487.869-13.184 487.026-12.729Q486.184-12.275 485.708-11.477Q485.232-10.679 485.232-9.639L485.232-9.639L485.232 0Z M492.871 5.845L492.871 5.845L493.765 2.871L494.219 2.988Q495.083 3.208 495.757 3.113Q496.431 3.018 496.885 2.527Q497.339 2.036 497.529 1.099L497.529 1.099L497.764 0.059L491.582-16.377L495.654-16.377L498.643-7.471Q499.170-5.889 499.507-4.321Q499.844-2.754 500.254-1.113L500.254-1.113L499.258-1.113Q499.654-2.754 500.049-4.329Q500.445-5.903 500.972-7.471L500.972-7.471L504.063-16.377L508.091-16.377L501.060 2.109Q500.562 3.413 499.815 4.343Q499.068 5.273 497.984 5.757Q496.900 6.240 495.420 6.240L495.420 6.240Q494.614 6.240 493.933 6.123Q493.252 6.006 492.871 5.845Z  M515.914-16.377L525.216-16.377L525.216-13.389L515.914-13.389L515.914-16.377ZM518.243-4.292L518.243-20.273L522.052-20.273L522.052-4.614Q522.052-3.721 522.432-3.303Q522.813-2.886 523.678-2.886L523.678-2.886Q523.941-2.886 524.373-2.952Q524.805-3.018 525.069-3.076L525.069-3.076L525.670-0.132Q525.040 0.059 524.381 0.139Q523.721 0.220 523.121 0.220L523.121 0.220Q520.762 0.220 519.503-0.952Q518.243-2.124 518.243-4.292L518.243-4.292Z M533.544 0.205L533.544 0.205Q531.859 0.205 530.592-0.513Q529.325-1.230 528.629-2.615Q527.933-3.999 527.933-5.962L527.933-5.962L527.933-16.377L531.742-16.377L531.742-6.548Q531.742-4.907 532.599-3.970Q533.456-3.032 534.950-3.032L534.950-3.032Q535.961-3.032 536.752-3.472Q537.543-3.911 537.989-4.761Q538.436-5.610 538.436-6.782L538.436-6.782L538.436-16.377L542.259-16.377L542.259 0L538.641 0L538.597-4.043L538.890-4.043Q538.202-1.904 536.854-0.850Q535.506 0.205 533.544 0.205Z M549.811 0L546.002 0L546.002-16.377L549.694-16.377L549.694-13.638L549.870-13.638Q550.309-15.059 551.408-15.828Q552.506-16.597 553.912-16.597L553.912-16.597Q554.235-16.597 554.630-16.567Q555.026-16.538 555.304-16.494L555.304-16.494L555.304-12.993Q555.070-13.066 554.542-13.125Q554.015-13.184 553.502-13.184L553.502-13.184Q552.448-13.184 551.605-12.729Q550.763-12.275 550.287-11.477Q549.811-10.679 549.811-9.639L549.811-9.639L549.811 0Z M561.420-9.595L561.420-9.595L561.420 0L557.612 0L557.612-16.377L561.215-16.377L561.274-12.334L560.966-12.334Q561.654-14.458 562.987-15.520Q564.321-16.582 566.327-16.582L566.327-16.582Q568.012-16.582 569.272-15.864Q570.531-15.146 571.227-13.770Q571.923-12.393 571.923-10.415L571.923-10.415L571.923 0L568.114 0L568.114-9.829Q568.114-11.470 567.265-12.407Q566.415-13.345 564.921-13.345L564.921-13.345Q563.910-13.345 563.119-12.905Q562.328-12.466 561.874-11.624Q561.420-10.781 561.420-9.595Z M582.771 0.337L582.771 0.337Q580.383 0.337 578.625-0.725Q576.867-1.787 575.908-3.684Q574.948-5.581 574.948-8.101L574.948-8.101Q574.948-10.649 575.908-12.561Q576.867-14.473 578.625-15.527Q580.383-16.582 582.771-16.582L582.771-16.582Q585.173-16.582 586.931-15.527Q588.688-14.473 589.648-12.561Q590.607-10.649 590.607-8.101L590.607-8.101Q590.607-5.581 589.648-3.684Q588.688-1.787 586.931-0.725Q585.173 0.337 582.771 0.337ZM582.771-2.754L582.771-2.754Q584.104-2.754 584.990-3.472Q585.876-4.189 586.308-5.405Q586.740-6.621 586.740-8.115L586.740-8.115Q586.740-9.624 586.308-10.840Q585.876-12.056 584.990-12.773Q584.104-13.491 582.771-13.491L582.771-13.491Q581.437-13.491 580.566-12.773Q579.694-12.056 579.262-10.847Q578.830-9.639 578.830-8.115L578.830-8.115Q578.830-6.621 579.262-5.405Q579.694-4.189 580.566-3.472Q581.437-2.754 582.771-2.754Z M602.539 0L598.276 0L592.182-16.377L596.255-16.377L599.243-7.471Q599.770-5.903 600.151-4.321Q600.532-2.739 600.928-1.113L600.928-1.113L599.975-1.113Q600.386-2.739 600.759-4.321Q601.133-5.903 601.645-7.471L601.645-7.471L604.619-16.377L608.662-16.377L602.539 0Z M618.176 0.337L618.176 0.337Q615.701 0.337 613.921-0.703Q612.141-1.743 611.182-3.633Q610.222-5.522 610.222-8.086L610.222-8.086Q610.222-10.620 611.167-12.524Q612.112-14.429 613.848-15.505Q615.584-16.582 617.927-16.582L617.927-16.582Q619.421-16.582 620.776-16.099Q622.131-15.615 623.179-14.604Q624.226-13.594 624.819-12.034Q625.413-10.474 625.413-8.320L625.413-8.320L625.413-7.119L612.024-7.119L612.024-9.712L623.523-9.712L621.736-8.950Q621.736-10.327 621.311-11.375Q620.886-12.422 620.044-13.008Q619.202-13.594 617.942-13.594L617.942-13.594Q616.682-13.594 615.803-13.000Q614.924-12.407 614.463-11.418Q614.002-10.430 614.002-9.214L614.002-9.214L614.002-7.427Q614.002-5.874 614.529-4.805Q615.056-3.735 616.008-3.193Q616.961-2.651 618.220-2.651L618.220-2.651Q619.055-2.651 619.736-2.893Q620.418-3.135 620.916-3.611Q621.414-4.087 621.663-4.775L621.663-4.775L625.164-4.058Q624.768-2.739 623.816-1.750Q622.864-0.762 621.436-0.212Q620.007 0.337 618.176 0.337Z M632.188 0L628.379 0L628.379-16.377L632.071-16.377L632.071-13.638L632.246-13.638Q632.686-15.059 633.785-15.828Q634.883-16.597 636.289-16.597L636.289-16.597Q636.612-16.597 637.007-16.567Q637.403-16.538 637.681-16.494L637.681-16.494L637.681-12.993Q637.447-13.066 636.919-13.125Q636.392-13.184 635.879-13.184L635.879-13.184Q634.825-13.184 633.982-12.729Q633.140-12.275 632.664-11.477Q632.188-10.679 632.188-9.639L632.188-9.639L632.188 0Z M642.742 0.249L642.742 0.249Q641.761 0.249 641.080-0.425Q640.399-1.099 640.399-2.095L640.399-2.095Q640.399-3.076 641.080-3.750Q641.761-4.424 642.742-4.424L642.742-4.424Q643.738-4.424 644.420-3.750Q645.101-3.076 645.101-2.095L645.101-2.095Q645.101-1.099 644.420-0.425Q643.738 0.249 642.742 0.249Z" fill="#8A8F98"/></g></g><g transform="translate(555.00 362.16) scale(1.5234)"><path d="M0 8 q8 -4 16 0 t16 0 t16 0 t16 0 t16 0 t16 0 t16 0 t16 0 t16 0 t16 0 t16 0 t16 0 t16 0 t16 0 t16 0 t16 0" stroke="#3B82F6" stroke-width="1.6" fill="none"/></g></svg>
