<svg xmlns="http://www.w3.org/2000/svg" width="1360.00" height="294.00" viewBox="0 0 1360.00 294.00" fill="none" role="img" aria-label="TrackTub color"><title>TrackTub color</title><rect width="1360" height="294" fill="#0E0F11"/><rect x="40" y="40" width="240" height="150" rx="10" fill="#3B82F6"/><g transform="translate(40 212) scale(0.2030)"><g transform="translate(0.000 72.754)"><path d="M36.670 0L7.324 0L7.324-72.754L35.156-72.754Q43.018-72.754 48.242-70.264Q53.467-67.773 56.055-63.525Q58.643-59.277 58.643-53.857L58.643-53.857Q58.643-49.414 56.934-46.265Q55.225-43.115 52.368-41.162Q49.512-39.209 45.947-38.379L45.947-38.379L45.947-37.646Q49.805-37.451 53.369-35.303Q56.934-33.154 59.204-29.248Q61.475-25.342 61.475-19.824L61.475-19.824Q61.475-14.160 58.740-9.668Q56.006-5.176 50.513-2.588Q45.020 0 36.670 0L36.670 0ZM20.361-32.324L20.361-10.889L34.619-10.889Q41.846-10.889 45.044-13.672Q48.242-16.455 48.242-20.801L48.242-20.801Q48.242-24.072 46.631-26.685Q45.020-29.297 42.065-30.811Q39.111-32.324 35.059-32.324L35.059-32.324L20.361-32.324ZM20.361-61.914L20.361-41.748L33.496-41.748Q36.963-41.748 39.697-43.018Q42.432-44.287 44.019-46.631Q45.605-48.975 45.605-52.197L45.605-52.197Q45.605-56.445 42.627-59.180Q39.648-61.914 33.789-61.914L33.789-61.914L20.361-61.914Z M84.852 0L72.156 0L72.156-54.590L84.461-54.590L84.461-45.459L85.047-45.459Q86.512-50.195 90.174-52.759Q93.836-55.322 98.523-55.322L98.523-55.322Q99.598-55.322 100.916-55.225Q102.234-55.127 103.162-54.980L103.162-54.980L103.162-43.311Q102.381-43.555 100.623-43.750Q98.865-43.945 97.156-43.945L97.156-43.945Q93.641-43.945 90.833-42.432Q88.025-40.918 86.438-38.257Q84.852-35.596 84.852-32.129L84.852-32.129L84.852 0Z M126.588 1.123L126.588 1.123Q121.412 1.123 117.262-0.757Q113.111-2.637 110.719-6.299Q108.326-9.961 108.326-15.332L108.326-15.332Q108.326-19.971 110.060-22.998Q111.793-26.025 114.747-27.832Q117.701-29.639 121.412-30.566Q125.123-31.494 129.127-31.885L129.127-31.885Q133.863-32.422 136.842-32.813Q139.820-33.203 141.212-34.082Q142.604-34.961 142.604-36.816L142.604-36.816L142.604-37.061Q142.604-39.746 141.529-41.626Q140.455-43.506 138.331-44.507Q136.207-45.508 133.082-45.508L133.082-45.508Q129.908-45.508 127.589-44.531Q125.270-43.555 123.805-41.992Q122.340-40.430 121.656-38.623L121.656-38.623L109.889-41.016Q111.500-45.850 114.869-48.999Q118.238-52.148 122.901-53.711Q127.564-55.273 133.033-55.273L133.033-55.273Q136.891-55.273 140.821-54.370Q144.752-53.467 148.023-51.318Q151.295-49.170 153.297-45.557Q155.299-41.943 155.299-36.475L155.299-36.475L155.299 0L143.141 0L143.141-7.520L142.652-7.520Q141.432-5.225 139.308-3.247Q137.184-1.270 134.034-0.073Q130.885 1.123 126.588 1.123ZM129.859-8.301L129.859-8.301Q133.814-8.301 136.671-9.863Q139.527-11.426 141.114-13.989Q142.701-16.553 142.701-19.580L142.701-19.580L142.701-26.025Q142.066-25.537 140.577-25.098Q139.088-24.658 137.257-24.316Q135.426-23.975 133.644-23.730Q131.861-23.486 130.641-23.340L130.641-23.340Q127.809-22.949 125.514-22.070Q123.219-21.191 121.925-19.604Q120.631-18.018 120.631-15.479L120.631-15.479Q120.631-13.135 121.827-11.548Q123.023-9.961 125.099-9.131Q127.174-8.301 129.859-8.301Z M180.971-31.982L180.971-31.982L180.971 0L168.275 0L168.275-54.590L180.287-54.590L180.482-41.113L179.457-41.113Q181.752-48.193 186.195-51.733Q190.639-55.273 197.328-55.273L197.328-55.273Q202.943-55.273 207.143-52.881Q211.342-50.488 213.661-45.898Q215.980-41.309 215.980-34.717L215.980-34.717L215.980 0L203.285 0L203.285-32.764Q203.285-38.232 200.453-41.357Q197.621-44.482 192.641-44.482L192.641-44.482Q189.271-44.482 186.635-43.018Q183.998-41.553 182.484-38.745Q180.971-35.938 180.971-31.982Z M249.074 0.977L249.074 0.977Q242.629 0.977 237.526-2.319Q232.424-5.615 229.494-11.914Q226.564-18.213 226.564-27.197L226.564-27.197Q226.564-36.279 229.567-42.554Q232.570-48.828 237.673-52.051Q242.775-55.273 249.025-55.273L249.025-55.273Q253.908-55.273 257.009-53.638Q260.109-52.002 261.940-49.756Q263.771-47.510 264.699-45.557L264.699-45.557L265.236-45.557L265.236-72.754L277.932-72.754L277.932 0L265.480 0L265.480-8.643L264.699-8.643Q263.723-6.689 261.843-4.443Q259.963-2.197 256.887-0.610Q253.811 0.977 249.074 0.977ZM252.541-9.473L252.541-9.473Q256.691-9.473 259.572-11.694Q262.453-13.916 263.967-17.920Q265.480-21.924 265.480-27.246L265.480-27.246Q265.480-32.568 263.991-36.499Q262.502-40.430 259.597-42.627Q256.691-44.824 252.541-44.824L252.541-44.824Q248.244-44.824 245.363-42.554Q242.482-40.283 241.018-36.304Q239.553-32.324 239.553-27.246L239.553-27.246Q239.553-22.168 241.018-18.140Q242.482-14.111 245.388-11.792Q248.293-9.473 252.541-9.473Z  M324.734-26.709L324.734-26.709Q321.463-26.709 319.192-28.955Q316.922-31.201 316.922-34.521L316.922-34.521Q316.922-37.793 319.192-40.039Q321.463-42.285 324.734-42.285L324.734-42.285Q328.055-42.285 330.325-40.039Q332.596-37.793 332.596-34.521L332.596-34.521Q332.596-31.201 330.325-28.955Q328.055-26.709 324.734-26.709Z  M396.146 0L383.305 0L367.045-54.590L380.424-54.590L385.795-33.203Q387.016-27.930 388.480-21.631Q389.945-15.332 391.264-7.617L391.264-7.617L389.652-7.617Q390.971-15.137 392.484-21.460Q393.998-27.783 395.365-33.203L395.365-33.203L400.883-54.590L412.992-54.590L418.363-33.203Q419.682-27.881 421.171-21.558Q422.660-15.234 424.027-7.617L424.027-7.617L422.416-7.617Q423.734-15.186 425.126-21.484Q426.518-27.783 427.836-33.203L427.836-33.203L433.207-54.590L446.684-54.590L430.375 0L417.533 0L411.137-22.266Q410.160-25.635 409.232-29.492Q408.305-33.350 407.426-37.378Q406.547-41.406 405.668-45.117L405.668-45.117L408.012-45.117Q407.133-41.406 406.229-37.378Q405.326-33.350 404.423-29.443Q403.520-25.537 402.543-22.266L402.543-22.266L396.146 0Z M470.305 1.123L470.305 1.123Q465.129 1.123 460.979-0.757Q456.828-2.637 454.436-6.299Q452.043-9.961 452.043-15.332L452.043-15.332Q452.043-19.971 453.776-22.998Q455.510-26.025 458.464-27.832Q461.418-29.639 465.129-30.566Q468.840-31.494 472.844-31.885L472.844-31.885Q477.580-32.422 480.559-32.813Q483.537-33.203 484.929-34.082Q486.320-34.961 486.320-36.816L486.320-36.816L486.320-37.061Q486.320-39.746 485.246-41.626Q484.172-43.506 482.048-44.507Q479.924-45.508 476.799-45.508L476.799-45.508Q473.625-45.508 471.306-44.531Q468.986-43.555 467.521-41.992Q466.057-40.430 465.373-38.623L465.373-38.623L453.605-41.016Q455.217-45.850 458.586-48.999Q461.955-52.148 466.618-53.711Q471.281-55.273 476.750-55.273L476.750-55.273Q480.607-55.273 484.538-54.370Q488.469-53.467 491.740-51.318Q495.012-49.170 497.014-45.557Q499.016-41.943 499.016-36.475L499.016-36.475L499.016 0L486.857 0L486.857-7.520L486.369-7.520Q485.148-5.225 483.024-3.247Q480.900-1.270 477.751-0.073Q474.602 1.123 470.305 1.123ZM473.576-8.301L473.576-8.301Q477.531-8.301 480.388-9.863Q483.244-11.426 484.831-13.989Q486.418-16.553 486.418-19.580L486.418-19.580L486.418-26.025Q485.783-25.537 484.294-25.098Q482.805-24.658 480.974-24.316Q479.143-23.975 477.360-23.730Q475.578-23.486 474.357-23.340L474.357-23.340Q471.525-22.949 469.230-22.070Q466.936-21.191 465.642-19.604Q464.348-18.018 464.348-15.479L464.348-15.479Q464.348-13.135 465.544-11.548Q466.740-9.961 468.815-9.131Q470.891-8.301 473.576-8.301Z M506.230-54.590L537.236-54.590L537.236-44.629L506.230-44.629L506.230-54.590ZM513.994-14.307L513.994-67.578L526.689-67.578L526.689-15.381Q526.689-12.402 527.959-11.011Q529.229-9.619 532.109-9.619L532.109-9.619Q532.988-9.619 534.429-9.839Q535.869-10.059 536.748-10.254L536.748-10.254L538.750-0.439Q536.650 0.195 534.453 0.464Q532.256 0.732 530.254 0.732L530.254 0.732Q522.393 0.732 518.193-3.174Q513.994-7.080 513.994-14.307L513.994-14.307Z M570.916 1.123L570.916 1.123Q562.664 1.123 556.731-2.344Q550.799-5.811 547.601-12.109Q544.402-18.408 544.402-26.953L544.402-26.953Q544.402-35.400 547.552-41.748Q550.701-48.096 556.487-51.685Q562.273-55.273 570.086-55.273L570.086-55.273Q575.066-55.273 579.583-53.662Q584.100-52.051 587.591-48.682Q591.082-45.313 593.060-40.112Q595.037-34.912 595.037-27.734L595.037-27.734L595.037-23.730L550.408-23.730L550.408-32.373L588.738-32.373L582.781-29.834Q582.781-34.424 581.365-37.915Q579.949-41.406 577.142-43.359Q574.334-45.313 570.135-45.313L570.135-45.313Q565.936-45.313 563.006-43.335Q560.076-41.357 558.538-38.062Q557-34.766 557-30.713L557-30.713L557-24.756Q557-19.580 558.758-16.016Q560.516-12.451 563.689-10.645Q566.863-8.838 571.063-8.838L571.063-8.838Q573.846-8.838 576.116-9.644Q578.387-10.449 580.047-12.036Q581.707-13.623 582.537-15.918L582.537-15.918L594.207-13.525Q592.889-9.131 589.715-5.835Q586.541-2.539 581.780-0.708Q577.020 1.123 570.916 1.123Z M618.121 0L605.426 0L605.426-54.590L617.730-54.590L617.730-45.459L618.316-45.459Q619.781-50.195 623.443-52.759Q627.105-55.322 631.793-55.322L631.793-55.322Q632.867-55.322 634.186-55.225Q635.504-55.127 636.432-54.980L636.432-54.980L636.432-43.311Q635.650-43.555 633.893-43.750Q632.135-43.945 630.426-43.945L630.426-43.945Q626.910-43.945 624.103-42.432Q621.295-40.918 619.708-38.257Q618.121-35.596 618.121-32.129L618.121-32.129L618.121 0Z" fill="#EDEDEF"/></g></g><g transform="translate(40 234) scale(0.1740)"><g transform="translate(-1.270 73.730)"><path d="M43.896 0L34.033 0L45.996-72.754L55.859-72.754L43.896 0ZM57.227-18.799L1.270-18.799L2.930-28.662L58.887-28.662L57.227-18.799ZM18.359 0L8.496 0L20.410-72.754L30.273-72.754L18.359 0ZM61.426-44.043L5.518-44.043L7.178-53.955L63.037-53.955L61.426-44.043Z M98.143 0.977L98.143 0.977Q90.477 0.977 84.544-1.660Q78.611-4.297 75.193-8.960Q71.775-13.623 71.580-19.727L71.580-19.727L84.715-19.727Q84.910-16.748 86.692-14.551Q88.475-12.354 91.453-11.157Q94.432-9.961 98.143-9.961L98.143-9.961Q102.049-9.961 105.052-11.328Q108.055-12.695 109.788-15.161Q111.521-17.627 111.521-20.850L111.521-20.850Q111.521-24.170 109.764-26.709Q108.006-29.248 104.734-30.688Q101.463-32.129 96.824-32.129L96.824-32.129L90.379-32.129L90.379-42.188L96.824-42.188Q100.633-42.188 103.514-43.530Q106.395-44.873 108.006-47.266Q109.617-49.658 109.617-52.832L109.617-52.832Q109.617-55.908 108.226-58.203Q106.834-60.498 104.271-61.792Q101.707-63.086 98.289-63.086L98.289-63.086Q94.920-63.086 92.088-61.890Q89.256-60.693 87.498-58.496Q85.740-56.299 85.643-53.174L85.643-53.174L73.094-53.174Q73.191-59.277 76.585-63.892Q79.979-68.506 85.667-71.118Q91.355-73.730 98.387-73.730L98.387-73.730Q105.662-73.730 111.033-70.996Q116.404-68.262 119.358-63.696Q122.313-59.131 122.313-53.613L122.313-53.613Q122.313-47.461 118.699-43.311Q115.086-39.160 109.178-37.842L109.178-37.842L109.178-37.256Q114.256-36.572 117.771-34.253Q121.287-31.934 123.118-28.320Q124.949-24.707 124.949-20.166L124.949-20.166Q124.949-14.063 121.482-9.277Q118.016-4.492 111.985-1.758Q105.955 0.977 98.143 0.977Z M168.648 0L139.303 0L139.303-72.754L167.135-72.754Q174.996-72.754 180.221-70.264Q185.445-67.773 188.033-63.525Q190.621-59.277 190.621-53.857L190.621-53.857Q190.621-49.414 188.912-46.265Q187.203-43.115 184.347-41.162Q181.490-39.209 177.926-38.379L177.926-38.379L177.926-37.646Q181.783-37.451 185.348-35.303Q188.912-33.154 191.183-29.248Q193.453-25.342 193.453-19.824L193.453-19.824Q193.453-14.160 190.719-9.668Q187.984-5.176 182.491-2.588Q176.998 0 168.648 0L168.648 0ZM152.340-32.324L152.340-10.889L166.598-10.889Q173.824-10.889 177.022-13.672Q180.221-16.455 180.221-20.801L180.221-20.801Q180.221-24.072 178.609-26.685Q176.998-29.297 174.044-30.811Q171.090-32.324 167.037-32.324L167.037-32.324L152.340-32.324ZM152.340-61.914L152.340-41.748L165.475-41.748Q168.941-41.748 171.676-43.018Q174.410-44.287 175.997-46.631Q177.584-48.975 177.584-52.197L177.584-52.197Q177.584-56.445 174.605-59.180Q171.627-61.914 165.768-61.914L165.768-61.914L152.340-61.914Z M231.879 0.977L231.879 0.977Q224.018 0.977 217.914-1.685Q211.811-4.346 208.368-8.960Q204.926-13.574 204.926-19.482L204.926-19.482Q204.926-24.023 206.928-27.881Q208.930-31.738 212.372-34.326Q215.814-36.914 220.111-37.646L220.111-37.646L220.111-38.086Q214.496-39.355 211.029-43.872Q207.563-48.389 207.563-54.248L207.563-54.248Q207.563-59.863 210.712-64.258Q213.861-68.652 219.354-71.191Q224.848-73.730 231.879-73.730L231.879-73.730Q238.861-73.730 244.354-71.191Q249.848-68.652 253.021-64.258Q256.195-59.863 256.195-54.248L256.195-54.248Q256.195-48.389 252.704-43.872Q249.213-39.355 243.695-38.086L243.695-38.086L243.695-37.646Q247.943-36.914 251.386-34.326Q254.828-31.738 256.854-27.881Q258.881-24.023 258.881-19.482L258.881-19.482Q258.881-13.574 255.414-8.960Q251.947-4.346 245.844-1.685Q239.740 0.977 231.879 0.977ZM231.879-9.082L231.879-9.082Q235.980-9.082 239.008-10.498Q242.035-11.914 243.720-14.478Q245.404-17.041 245.404-20.410L245.404-20.410Q245.404-23.926 243.646-26.587Q241.889-29.248 238.837-30.811Q235.785-32.373 231.879-32.373L231.879-32.373Q227.973-32.373 224.896-30.835Q221.820-29.297 220.063-26.611Q218.305-23.926 218.305-20.410L218.305-20.410Q218.305-17.041 219.965-14.502Q221.625-11.963 224.701-10.522Q227.777-9.082 231.879-9.082ZM231.879-42.236L231.879-42.236Q235.248-42.236 237.836-43.604Q240.424-44.971 241.938-47.388Q243.451-49.805 243.451-52.979L243.451-52.979Q243.451-56.152 241.986-58.496Q240.521-60.840 237.909-62.158Q235.297-63.477 231.879-63.477L231.879-63.477Q228.412-63.477 225.800-62.158Q223.188-60.840 221.747-58.496Q220.307-56.152 220.307-52.979L220.307-52.979Q220.307-49.805 221.771-47.388Q223.236-44.971 225.873-43.604Q228.510-42.236 231.879-42.236Z M322.209 0L272.453 0L272.453-9.375L297.697-34.229Q301.262-37.891 303.679-40.723Q306.096-43.555 307.341-46.216Q308.586-48.877 308.586-52.002L308.586-52.002Q308.586-55.420 306.999-57.910Q305.412-60.400 302.702-61.743Q299.992-63.086 296.525-63.086L296.525-63.086Q292.863-63.086 290.153-61.621Q287.443-60.156 285.979-57.446Q284.514-54.736 284.514-50.977L284.514-50.977L272.063-50.977Q272.063-57.861 275.212-62.988Q278.361-68.115 283.903-70.923Q289.445-73.730 296.672-73.730L296.672-73.730Q303.947-73.730 309.465-70.996Q314.982-68.262 318.059-63.501Q321.135-58.740 321.135-52.637L321.135-52.637Q321.135-48.584 319.621-44.727Q318.107-40.869 314.201-36.011Q310.295-31.152 303.166-24.316L303.166-24.316L290.520-11.426L290.520-10.889L322.209-10.889L322.209 0Z M350.576 0L337.539 0L337.539-72.754L384.121-72.754L384.121-61.768L350.576-61.768L350.576-39.941L380.850-39.941L380.850-29.102L350.576-29.102L350.576 0Z M423.768 0.977L423.768 0.977Q418.592 0.977 413.636-0.806Q408.680-2.588 404.700-6.665Q400.721-10.742 398.377-17.505Q396.033-24.268 396.033-34.277L396.033-34.277Q396.033-43.652 398.011-50.952Q399.988-58.252 403.724-63.330Q407.459-68.408 412.732-71.069Q418.006-73.730 424.549-73.730L424.549-73.730Q431.336-73.730 436.634-71.045Q441.932-68.359 445.203-63.721Q448.475-59.082 449.256-53.174L449.256-53.174L436.463-53.174Q435.438-57.373 432.361-59.912Q429.285-62.451 424.549-62.451L424.549-62.451Q419.471-62.451 415.931-59.473Q412.391-56.494 410.560-50.952Q408.729-45.410 408.729-37.695L408.729-37.695L409.266-37.695Q411.023-40.869 413.782-43.115Q416.541-45.361 420.032-46.558Q423.523-47.754 427.381-47.754L427.381-47.754Q433.777-47.754 438.880-44.702Q443.982-41.650 446.961-36.304Q449.939-30.957 449.939-24.023L449.939-24.023Q449.939-16.895 446.668-11.230Q443.396-5.566 437.513-2.295Q431.629 0.977 423.768 0.977ZM423.719-9.619L423.719-9.619Q427.576-9.619 430.652-11.499Q433.729-13.379 435.511-16.602Q437.293-19.824 437.293-23.779L437.293-23.779Q437.293-27.686 435.560-30.859Q433.826-34.033 430.799-35.889Q427.771-37.744 423.865-37.744L423.865-37.744Q420.984-37.744 418.494-36.646Q416.004-35.547 414.124-33.594Q412.244-31.641 411.219-29.102Q410.193-26.563 410.193-23.730L410.193-23.730Q410.193-19.922 411.951-16.699Q413.709-13.477 416.785-11.548Q419.861-9.619 423.719-9.619Z" fill="#8A8F98"/></g></g><rect x="300" y="40" width="240" height="150" rx="10" fill="#34D399"/><g transform="translate(300 212) scale(0.1939)"><g transform="translate(-2.441 76.221)"><path d="M44.873 0L28.369 0L2.441-72.754L16.748-72.754L29.639-34.961Q31.445-29.297 33.545-21.899Q35.645-14.502 38.086-5.176L38.086-5.176L35.352-5.176Q37.793-14.648 39.819-21.973Q41.846-29.297 43.604-34.961L43.604-34.961L56.104-72.754L70.361-72.754L44.873 0Z M103.113 1.123L103.113 1.123Q94.861 1.123 88.929-2.344Q82.996-5.811 79.798-12.109Q76.600-18.408 76.600-26.953L76.600-26.953Q76.600-35.400 79.749-41.748Q82.898-48.096 88.685-51.685Q94.471-55.273 102.283-55.273L102.283-55.273Q107.264-55.273 111.780-53.662Q116.297-52.051 119.788-48.682Q123.279-45.313 125.257-40.112Q127.234-34.912 127.234-27.734L127.234-27.734L127.234-23.730L82.605-23.730L82.605-32.373L120.936-32.373L114.979-29.834Q114.979-34.424 113.563-37.915Q112.146-41.406 109.339-43.359Q106.531-45.313 102.332-45.313L102.332-45.313Q98.133-45.313 95.203-43.335Q92.273-41.357 90.735-38.062Q89.197-34.766 89.197-30.713L89.197-30.713L89.197-24.756Q89.197-19.580 90.955-16.016Q92.713-12.451 95.887-10.645Q99.061-8.838 103.260-8.838L103.260-8.838Q106.043-8.838 108.313-9.644Q110.584-10.449 112.244-12.036Q113.904-13.623 114.734-15.918L114.734-15.918L126.404-13.525Q125.086-9.131 121.912-5.835Q118.738-2.539 113.978-0.708Q109.217 1.123 103.113 1.123Z M150.318 0L137.623 0L137.623-54.590L149.928-54.590L149.928-45.459L150.514-45.459Q151.979-50.195 155.641-52.759Q159.303-55.322 163.990-55.322L163.990-55.322Q165.064-55.322 166.383-55.225Q167.701-55.127 168.629-54.980L168.629-54.980L168.629-43.311Q167.848-43.555 166.090-43.750Q164.332-43.945 162.623-43.945L162.623-43.945Q159.107-43.945 156.300-42.432Q153.492-40.918 151.905-38.257Q150.318-35.596 150.318-32.129L150.318-32.129L150.318 0Z M189.516 0L176.820 0L176.820-54.590L189.516-54.590L189.516 0ZM183.168-62.305L183.168-62.305Q180.141-62.305 177.968-64.355Q175.795-66.406 175.795-69.238L175.795-69.238Q175.795-72.168 177.968-74.194Q180.141-76.221 183.168-76.221L183.168-76.221Q186.244-76.221 188.417-74.194Q190.590-72.168 190.590-69.287L190.590-69.287Q190.590-66.406 188.417-64.355Q186.244-62.305 183.168-62.305Z M196.730-54.590L231.203-54.590L231.203-44.629L196.730-44.629L196.730-54.590ZM219.387 0L206.740 0L206.740-59.814Q206.740-65.283 209.011-68.896Q211.281-72.510 215.163-74.341Q219.045-76.172 223.684-76.172L223.684-76.172Q227.053-76.172 229.641-75.635Q232.229-75.098 233.449-74.658L233.449-74.658L230.861-64.795Q230.031-65.039 228.835-65.308Q227.639-65.576 226.027-65.576L226.027-65.576Q222.463-65.576 220.925-63.818Q219.387-62.061 219.387-58.838L219.387-58.838L219.387 0Z M253.555 0L240.859 0L240.859-54.590L253.555-54.590L253.555 0ZM247.207-62.305L247.207-62.305Q244.180-62.305 242.007-64.355Q239.834-66.406 239.834-69.238L239.834-69.238Q239.834-72.168 242.007-74.194Q244.180-76.221 247.207-76.221L247.207-76.221Q250.283-76.221 252.456-74.194Q254.629-72.168 254.629-69.287L254.629-69.287Q254.629-66.406 252.456-64.355Q250.283-62.305 247.207-62.305Z M290.652 1.123L290.652 1.123Q282.400 1.123 276.468-2.344Q270.535-5.811 267.337-12.109Q264.139-18.408 264.139-26.953L264.139-26.953Q264.139-35.400 267.288-41.748Q270.438-48.096 276.224-51.685Q282.010-55.273 289.822-55.273L289.822-55.273Q294.803-55.273 299.319-53.662Q303.836-52.051 307.327-48.682Q310.818-45.313 312.796-40.112Q314.773-34.912 314.773-27.734L314.773-27.734L314.773-23.730L270.145-23.730L270.145-32.373L308.475-32.373L302.518-29.834Q302.518-34.424 301.102-37.915Q299.686-41.406 296.878-43.359Q294.070-45.313 289.871-45.313L289.871-45.313Q285.672-45.313 282.742-43.335Q279.813-41.357 278.274-38.062Q276.736-34.766 276.736-30.713L276.736-30.713L276.736-24.756Q276.736-19.580 278.494-16.016Q280.252-12.451 283.426-10.645Q286.600-8.838 290.799-8.838L290.799-8.838Q293.582-8.838 295.853-9.644Q298.123-10.449 299.783-12.036Q301.443-13.623 302.273-15.918L302.273-15.918L313.943-13.525Q312.625-9.131 309.451-5.835Q306.277-2.539 301.517-0.708Q296.756 1.123 290.652 1.123Z M345.279 0.977L345.279 0.977Q338.834 0.977 333.731-2.319Q328.629-5.615 325.699-11.914Q322.770-18.213 322.770-27.197L322.770-27.197Q322.770-36.279 325.772-42.554Q328.775-48.828 333.878-52.051Q338.980-55.273 345.230-55.273L345.230-55.273Q350.113-55.273 353.214-53.638Q356.314-52.002 358.146-49.756Q359.977-47.510 360.904-45.557L360.904-45.557L361.441-45.557L361.441-72.754L374.137-72.754L374.137 0L361.686 0L361.686-8.643L360.904-8.643Q359.928-6.689 358.048-4.443Q356.168-2.197 353.092-0.610Q350.016 0.977 345.279 0.977ZM348.746-9.473L348.746-9.473Q352.896-9.473 355.777-11.694Q358.658-13.916 360.172-17.920Q361.686-21.924 361.686-27.246L361.686-27.246Q361.686-32.568 360.196-36.499Q358.707-40.430 355.802-42.627Q352.896-44.824 348.746-44.824L348.746-44.824Q344.449-44.824 341.568-42.554Q338.688-40.283 337.223-36.304Q335.758-32.324 335.758-27.246L335.758-27.246Q335.758-22.168 337.223-18.140Q338.688-14.111 341.593-11.792Q344.498-9.473 348.746-9.473Z" fill="#EDEDEF"/></g></g><g transform="translate(300 234) scale(0.1738)"><g transform="translate(-1.270 73.782)"><path d="M43.896 0L34.033 0L45.996-72.754L55.859-72.754L43.896 0ZM57.227-18.799L1.270-18.799L2.930-28.662L58.887-28.662L57.227-18.799ZM18.359 0L8.496 0L20.410-72.754L30.273-72.754L18.359 0ZM61.426-44.043L5.518-44.043L7.178-53.955L63.037-53.955L61.426-44.043Z M98.143 0.977L98.143 0.977Q90.477 0.977 84.544-1.660Q78.611-4.297 75.193-8.960Q71.775-13.623 71.580-19.727L71.580-19.727L84.715-19.727Q84.910-16.748 86.692-14.551Q88.475-12.354 91.453-11.157Q94.432-9.961 98.143-9.961L98.143-9.961Q102.049-9.961 105.052-11.328Q108.055-12.695 109.788-15.161Q111.521-17.627 111.521-20.850L111.521-20.850Q111.521-24.170 109.764-26.709Q108.006-29.248 104.734-30.688Q101.463-32.129 96.824-32.129L96.824-32.129L90.379-32.129L90.379-42.188L96.824-42.188Q100.633-42.188 103.514-43.530Q106.395-44.873 108.006-47.266Q109.617-49.658 109.617-52.832L109.617-52.832Q109.617-55.908 108.226-58.203Q106.834-60.498 104.271-61.792Q101.707-63.086 98.289-63.086L98.289-63.086Q94.920-63.086 92.088-61.890Q89.256-60.693 87.498-58.496Q85.740-56.299 85.643-53.174L85.643-53.174L73.094-53.174Q73.191-59.277 76.585-63.892Q79.979-68.506 85.667-71.118Q91.355-73.730 98.387-73.730L98.387-73.730Q105.662-73.730 111.033-70.996Q116.404-68.262 119.358-63.696Q122.313-59.131 122.313-53.613L122.313-53.613Q122.313-47.461 118.699-43.311Q115.086-39.160 109.178-37.842L109.178-37.842L109.178-37.256Q114.256-36.572 117.771-34.253Q121.287-31.934 123.118-28.320Q124.949-24.707 124.949-20.166L124.949-20.166Q124.949-14.063 121.482-9.277Q118.016-4.492 111.985-1.758Q105.955 0.977 98.143 0.977Z M193.697-13.525L137.203-13.525L137.203-23.926L168.111-72.754L176.705-72.754L176.705-57.910L171.480-57.910L150.533-24.854L150.533-24.268L193.697-24.268L193.697-13.525ZM184.322 0L171.822 0L171.822-16.650L172.066-21.387L172.066-72.754L184.322-72.754L184.322 0Z M232.514 0L232.514 0L214.105 0L214.105-11.279L231.879-11.279Q239.496-11.279 244.599-14.087Q249.701-16.895 252.289-22.485Q254.877-28.076 254.877-36.475L254.877-36.475Q254.877-44.775 252.289-50.342Q249.701-55.908 244.696-58.691Q239.691-61.475 232.221-61.475L232.221-61.475L213.715-61.475L213.715-72.754L233.002-72.754Q243.842-72.754 251.605-68.408Q259.369-64.063 263.544-55.908Q267.719-47.754 267.719-36.475L267.719-36.475Q267.719-25.098 263.544-16.919Q259.369-8.740 251.483-4.370Q243.598 0 232.514 0ZM207.904-72.754L220.941-72.754L220.941 0L207.904 0L207.904-72.754Z M306.584 0.977L306.584 0.977Q298.918 0.977 292.985-1.660Q287.053-4.297 283.635-8.960Q280.217-13.623 280.021-19.727L280.021-19.727L293.156-19.727Q293.352-16.748 295.134-14.551Q296.916-12.354 299.895-11.157Q302.873-9.961 306.584-9.961L306.584-9.961Q310.490-9.961 313.493-11.328Q316.496-12.695 318.229-15.161Q319.963-17.627 319.963-20.850L319.963-20.850Q319.963-24.170 318.205-26.709Q316.447-29.248 313.176-30.688Q309.904-32.129 305.266-32.129L305.266-32.129L298.820-32.129L298.820-42.188L305.266-42.188Q309.074-42.188 311.955-43.530Q314.836-44.873 316.447-47.266Q318.059-49.658 318.059-52.832L318.059-52.832Q318.059-55.908 316.667-58.203Q315.275-60.498 312.712-61.792Q310.148-63.086 306.730-63.086L306.730-63.086Q303.361-63.086 300.529-61.890Q297.697-60.693 295.939-58.496Q294.182-56.299 294.084-53.174L294.084-53.174L281.535-53.174Q281.633-59.277 285.026-63.892Q288.420-68.506 294.108-71.118Q299.797-73.730 306.828-73.730L306.828-73.730Q314.104-73.730 319.475-70.996Q324.846-68.262 327.800-63.696Q330.754-59.131 330.754-53.613L330.754-53.613Q330.754-47.461 327.141-43.311Q323.527-39.160 317.619-37.842L317.619-37.842L317.619-37.256Q322.697-36.572 326.213-34.253Q329.729-31.934 331.560-28.320Q333.391-24.707 333.391-20.166L333.391-20.166Q333.391-14.063 329.924-9.277Q326.457-4.492 320.427-1.758Q314.396 0.977 306.584 0.977Z M370.938 1.025L370.938 1.025Q364.102 1.025 358.804-1.660Q353.506-4.346 350.234-9.033Q346.963-13.721 346.133-19.678L346.133-19.678L359.023-19.678Q360-15.479 363.052-12.866Q366.104-10.254 370.938-10.254L370.938-10.254Q376.016-10.254 379.531-13.232Q383.047-16.211 384.878-21.777Q386.709-27.344 386.709-35.107L386.709-35.107L386.221-35.107Q384.463-31.982 381.704-29.736Q378.945-27.490 375.479-26.270Q372.012-25.049 368.057-25.049L368.057-25.049Q361.709-25.049 356.558-28.101Q351.406-31.152 348.428-36.523Q345.449-41.895 345.449-48.730L345.449-48.730Q345.449-55.908 348.770-61.621Q352.090-67.334 357.998-70.605Q363.906-73.877 371.768-73.779L371.768-73.779Q376.943-73.779 381.851-71.973Q386.758-70.166 390.713-66.113Q394.668-62.061 397.012-55.298Q399.355-48.535 399.355-38.525L399.355-38.525Q399.355-29.150 397.378-21.826Q395.400-14.502 391.665-9.399Q387.930-4.297 382.681-1.636Q377.432 1.025 370.938 1.025ZM371.523-35.059L371.523-35.059Q374.453-35.059 376.968-36.182Q379.482-37.305 381.338-39.258Q383.193-41.211 384.243-43.750Q385.293-46.289 385.293-49.170L385.293-49.170Q385.293-52.930 383.535-56.104Q381.777-59.277 378.726-61.206Q375.674-63.135 371.719-63.135L371.719-63.135Q367.861-63.135 364.810-61.255Q361.758-59.375 359.951-56.177Q358.145-52.979 358.145-49.023L358.145-49.023Q358.145-45.117 359.902-41.943Q361.660-38.770 364.663-36.914Q367.666-35.059 371.523-35.059Z M436.902 1.025L436.902 1.025Q430.066 1.025 424.769-1.660Q419.471-4.346 416.199-9.033Q412.928-13.721 412.098-19.678L412.098-19.678L424.988-19.678Q425.965-15.479 429.017-12.866Q432.068-10.254 436.902-10.254L436.902-10.254Q441.980-10.254 445.496-13.232Q449.012-16.211 450.843-21.777Q452.674-27.344 452.674-35.107L452.674-35.107L452.186-35.107Q450.428-31.982 447.669-29.736Q444.910-27.490 441.443-26.270Q437.977-25.049 434.021-25.049L434.021-25.049Q427.674-25.049 422.522-28.101Q417.371-31.152 414.393-36.523Q411.414-41.895 411.414-48.730L411.414-48.730Q411.414-55.908 414.734-61.621Q418.055-67.334 423.963-70.605Q429.871-73.877 437.732-73.779L437.732-73.779Q442.908-73.779 447.815-71.973Q452.723-70.166 456.678-66.113Q460.633-62.061 462.977-55.298Q465.320-48.535 465.320-38.525L465.320-38.525Q465.320-29.150 463.343-21.826Q461.365-14.502 457.630-9.399Q453.895-4.297 448.646-1.636Q443.396 1.025 436.902 1.025ZM437.488-35.059L437.488-35.059Q440.418-35.059 442.933-36.182Q445.447-37.305 447.303-39.258Q449.158-41.211 450.208-43.750Q451.258-46.289 451.258-49.170L451.258-49.170Q451.258-52.930 449.500-56.104Q447.742-59.277 444.690-61.206Q441.639-63.135 437.684-63.135L437.684-63.135Q433.826-63.135 430.774-61.255Q427.723-59.375 425.916-56.177Q424.109-52.979 424.109-49.023L424.109-49.023Q424.109-45.117 425.867-41.943Q427.625-38.770 430.628-36.914Q433.631-35.059 437.488-35.059Z" fill="#8A8F98"/></g></g><rect x="560" y="40" width="240" height="150" rx="10" fill="#08090A" stroke="rgba(255,255,255,.14)"/><g transform="translate(560 212) scale(0.2062)"><g transform="translate(-7.324 72.754)"><path d="M7.324-72.754L20.361-72.754L20.361 0L7.324 0L7.324-72.754Z M46.619-31.982L46.619-31.982L46.619 0L33.924 0L33.924-54.590L45.936-54.590L46.131-41.113L45.105-41.113Q47.400-48.193 51.844-51.733Q56.287-55.273 62.977-55.273L62.977-55.273Q68.592-55.273 72.791-52.881Q76.990-50.488 79.310-45.898Q81.629-41.309 81.629-34.717L81.629-34.717L81.629 0L68.934 0L68.934-32.764Q68.934-38.232 66.102-41.357Q63.270-44.482 58.289-44.482L58.289-44.482Q54.920-44.482 52.283-43.018Q49.646-41.553 48.133-38.745Q46.619-35.938 46.619-31.982Z M116.041-27.686L106.227-17.188L106.227-32.568L108.229-32.568L127.906-54.590L142.799-54.590L118.678-27.686L116.041-27.686ZM107.301 0L94.605 0L94.605-72.754L107.301-72.754L107.301 0ZM144.068 0L128.834 0L110.963-24.854L119.557-33.838L144.068 0Z" fill="#EDEDEF"/></g></g><g transform="translate(560 234) scale(0.1738)"><g transform="translate(-1.270 73.782)"><path d="M43.896 0L34.033 0L45.996-72.754L55.859-72.754L43.896 0ZM57.227-18.799L1.270-18.799L2.930-28.662L58.887-28.662L57.227-18.799ZM18.359 0L8.496 0L20.410-72.754L30.273-72.754L18.359 0ZM61.426-44.043L5.518-44.043L7.178-53.955L63.037-53.955L61.426-44.043Z M99.314 0.977L99.314 0.977Q90.525 0.977 84.275-3.442Q78.025-7.861 74.705-16.187Q71.385-24.512 71.385-36.328L71.385-36.328Q71.385-48.145 74.729-56.494Q78.074-64.844 84.300-69.287Q90.525-73.730 99.314-73.730L99.314-73.730Q108.152-73.730 114.402-69.287Q120.652-64.844 123.973-56.494Q127.293-48.145 127.293-36.328L127.293-36.328Q127.293-24.512 123.997-16.187Q120.701-7.861 114.451-3.442Q108.201 0.977 99.314 0.977ZM99.363-9.961L99.363-9.961Q104.100-9.961 107.396-13.062Q110.691-16.162 112.425-22.046Q114.158-27.930 114.158-36.328L114.158-36.328Q114.158-44.775 112.425-50.684Q110.691-56.592 107.396-59.717Q104.100-62.842 99.363-62.842L99.363-62.842Q94.578-62.842 91.282-59.717Q87.986-56.592 86.253-50.684Q84.520-44.775 84.520-36.328L84.520-36.328Q84.520-27.930 86.229-22.046Q87.938-16.162 91.258-13.062Q94.578-9.961 99.363-9.961Z M166.305 0.977L166.305 0.977Q158.443 0.977 152.340-1.685Q146.236-4.346 142.794-8.960Q139.352-13.574 139.352-19.482L139.352-19.482Q139.352-24.023 141.354-27.881Q143.355-31.738 146.798-34.326Q150.240-36.914 154.537-37.646L154.537-37.646L154.537-38.086Q148.922-39.355 145.455-43.872Q141.988-48.389 141.988-54.248L141.988-54.248Q141.988-59.863 145.138-64.258Q148.287-68.652 153.780-71.191Q159.273-73.730 166.305-73.730L166.305-73.730Q173.287-73.730 178.780-71.191Q184.273-68.652 187.447-64.258Q190.621-59.863 190.621-54.248L190.621-54.248Q190.621-48.389 187.130-43.872Q183.639-39.355 178.121-38.086L178.121-38.086L178.121-37.646Q182.369-36.914 185.812-34.326Q189.254-31.738 191.280-27.881Q193.307-24.023 193.307-19.482L193.307-19.482Q193.307-13.574 189.840-8.960Q186.373-4.346 180.270-1.685Q174.166 0.977 166.305 0.977ZM166.305-9.082L166.305-9.082Q170.406-9.082 173.434-10.498Q176.461-11.914 178.146-14.478Q179.830-17.041 179.830-20.410L179.830-20.410Q179.830-23.926 178.072-26.587Q176.314-29.248 173.263-30.811Q170.211-32.373 166.305-32.373L166.305-32.373Q162.398-32.373 159.322-30.835Q156.246-29.297 154.488-26.611Q152.730-23.926 152.730-20.410L152.730-20.410Q152.730-17.041 154.391-14.502Q156.051-11.963 159.127-10.522Q162.203-9.082 166.305-9.082ZM166.305-42.236L166.305-42.236Q169.674-42.236 172.262-43.604Q174.850-44.971 176.363-47.388Q177.877-49.805 177.877-52.979L177.877-52.979Q177.877-56.152 176.412-58.496Q174.947-60.840 172.335-62.158Q169.723-63.477 166.305-63.477L166.305-63.477Q162.838-63.477 160.226-62.158Q157.613-60.840 156.173-58.496Q154.732-56.152 154.732-52.979L154.732-52.979Q154.732-49.805 156.197-47.388Q157.662-44.971 160.299-43.604Q162.936-42.236 166.305-42.236Z M233.295 0.977L233.295 0.977Q224.506 0.977 218.256-3.442Q212.006-7.861 208.686-16.187Q205.365-24.512 205.365-36.328L205.365-36.328Q205.365-48.145 208.710-56.494Q212.055-64.844 218.280-69.287Q224.506-73.730 233.295-73.730L233.295-73.730Q242.133-73.730 248.383-69.287Q254.633-64.844 257.953-56.494Q261.273-48.145 261.273-36.328L261.273-36.328Q261.273-24.512 257.978-16.187Q254.682-7.861 248.432-3.442Q242.182 0.977 233.295 0.977ZM233.344-9.961L233.344-9.961Q238.080-9.961 241.376-13.062Q244.672-16.162 246.405-22.046Q248.139-27.930 248.139-36.328L248.139-36.328Q248.139-44.775 246.405-50.684Q244.672-56.592 241.376-59.717Q238.080-62.842 233.344-62.842L233.344-62.842Q228.559-62.842 225.263-59.717Q221.967-56.592 220.233-50.684Q218.500-44.775 218.500-36.328L218.500-36.328Q218.500-27.930 220.209-22.046Q221.918-16.162 225.238-13.062Q228.559-9.961 233.344-9.961Z M298.820 1.025L298.820 1.025Q291.984 1.025 286.687-1.660Q281.389-4.346 278.117-9.033Q274.846-13.721 274.016-19.678L274.016-19.678L286.906-19.678Q287.883-15.479 290.935-12.866Q293.986-10.254 298.820-10.254L298.820-10.254Q303.898-10.254 307.414-13.232Q310.930-16.211 312.761-21.777Q314.592-27.344 314.592-35.107L314.592-35.107L314.104-35.107Q312.346-31.982 309.587-29.736Q306.828-27.490 303.361-26.270Q299.895-25.049 295.939-25.049L295.939-25.049Q289.592-25.049 284.440-28.101Q279.289-31.152 276.311-36.523Q273.332-41.895 273.332-48.730L273.332-48.730Q273.332-55.908 276.652-61.621Q279.973-67.334 285.881-70.605Q291.789-73.877 299.650-73.779L299.650-73.779Q304.826-73.779 309.733-71.973Q314.641-70.166 318.596-66.113Q322.551-62.061 324.895-55.298Q327.238-48.535 327.238-38.525L327.238-38.525Q327.238-29.150 325.261-21.826Q323.283-14.502 319.548-9.399Q315.813-4.297 310.563-1.636Q305.314 1.025 298.820 1.025ZM299.406-35.059L299.406-35.059Q302.336-35.059 304.851-36.182Q307.365-37.305 309.221-39.258Q311.076-41.211 312.126-43.750Q313.176-46.289 313.176-49.170L313.176-49.170Q313.176-52.930 311.418-56.104Q309.660-59.277 306.608-61.206Q303.557-63.135 299.602-63.135L299.602-63.135Q295.744-63.135 292.692-61.255Q289.641-59.375 287.834-56.177Q286.027-52.979 286.027-49.023L286.027-49.023Q286.027-45.117 287.785-41.943Q289.543-38.770 292.546-36.914Q295.549-35.059 299.406-35.059Z M367.227 0.977L367.227 0.977Q358.438 0.977 352.188-3.442Q345.938-7.861 342.617-16.187Q339.297-24.512 339.297-36.328L339.297-36.328Q339.297-48.145 342.642-56.494Q345.986-64.844 352.212-69.287Q358.438-73.730 367.227-73.730L367.227-73.730Q376.064-73.730 382.314-69.287Q388.564-64.844 391.885-56.494Q395.205-48.145 395.205-36.328L395.205-36.328Q395.205-24.512 391.909-16.187Q388.613-7.861 382.363-3.442Q376.113 0.977 367.227 0.977ZM367.275-9.961L367.275-9.961Q372.012-9.961 375.308-13.062Q378.604-16.162 380.337-22.046Q382.070-27.930 382.070-36.328L382.070-36.328Q382.070-44.775 380.337-50.684Q378.604-56.592 375.308-59.717Q372.012-62.842 367.275-62.842L367.275-62.842Q362.490-62.842 359.194-59.717Q355.898-56.592 354.165-50.684Q352.432-44.775 352.432-36.328L352.432-36.328Q352.432-27.930 354.141-22.046Q355.850-16.162 359.170-13.062Q362.490-9.961 367.275-9.961Z M418.934 0L404.676 0L430.066-72.754L446.619-72.754L472.596 0L458.289 0L445.350-37.793Q443.445-43.652 441.395-51.050Q439.344-58.447 436.854-67.871L436.854-67.871L439.588-67.871Q437.146-58.350 435.169-50.903Q433.191-43.457 431.434-37.793L431.434-37.793L418.934 0ZM457.801-18.018L419.471-18.018L419.471-28.516L457.801-28.516L457.801-18.018Z" fill="#8A8F98"/></g></g><rect x="820" y="40" width="240" height="150" rx="10" fill="#FFFFFF"/><g transform="translate(820 212) scale(0.1610)"><g transform="translate(-7.324 72.754)"><path d="M20.361 0L7.324 0L7.324-72.754L34.521-72.754Q42.871-72.754 48.584-69.629Q54.297-66.504 57.227-61.060Q60.156-55.615 60.156-48.682L60.156-48.682Q60.156-41.699 57.202-36.279Q54.248-30.859 48.486-27.734Q42.725-24.609 34.326-24.609L34.326-24.609L16.309-24.609L16.309-35.352L32.617-35.352Q37.549-35.352 40.698-37.061Q43.848-38.770 45.337-41.797Q46.826-44.824 46.826-48.682L46.826-48.682Q46.826-52.539 45.337-55.518Q43.848-58.496 40.674-60.156Q37.500-61.816 32.520-61.816L32.520-61.816L20.361-61.816L20.361 0Z M85.975 1.123L85.975 1.123Q80.799 1.123 76.648-0.757Q72.498-2.637 70.105-6.299Q67.713-9.961 67.713-15.332L67.713-15.332Q67.713-19.971 69.446-22.998Q71.180-26.025 74.134-27.832Q77.088-29.639 80.799-30.566Q84.510-31.494 88.514-31.885L88.514-31.885Q93.250-32.422 96.229-32.813Q99.207-33.203 100.599-34.082Q101.990-34.961 101.990-36.816L101.990-36.816L101.990-37.061Q101.990-39.746 100.916-41.626Q99.842-43.506 97.718-44.507Q95.594-45.508 92.469-45.508L92.469-45.508Q89.295-45.508 86.976-44.531Q84.656-43.555 83.191-41.992Q81.727-40.430 81.043-38.623L81.043-38.623L69.275-41.016Q70.887-45.850 74.256-48.999Q77.625-52.148 82.288-53.711Q86.951-55.273 92.420-55.273L92.420-55.273Q96.277-55.273 100.208-54.370Q104.139-53.467 107.410-51.318Q110.682-49.170 112.684-45.557Q114.686-41.943 114.686-36.475L114.686-36.475L114.686 0L102.527 0L102.527-7.520L102.039-7.520Q100.818-5.225 98.694-3.247Q96.570-1.270 93.421-0.073Q90.271 1.123 85.975 1.123ZM89.246-8.301L89.246-8.301Q93.201-8.301 96.058-9.863Q98.914-11.426 100.501-13.989Q102.088-16.553 102.088-19.580L102.088-19.580L102.088-26.025Q101.453-25.537 99.964-25.098Q98.475-24.658 96.644-24.316Q94.813-23.975 93.030-23.730Q91.248-23.486 90.027-23.340L90.027-23.340Q87.195-22.949 84.900-22.070Q82.605-21.191 81.312-19.604Q80.018-18.018 80.018-15.479L80.018-15.479Q80.018-13.135 81.214-11.548Q82.410-9.961 84.485-9.131Q86.561-8.301 89.246-8.301Z M140.357 20.410L127.662 20.410L127.662-54.590L140.064-54.590L140.064-45.557L140.895-45.557Q141.871-47.510 143.678-49.756Q145.484-52.002 148.585-53.638Q151.686-55.273 156.520-55.273L156.520-55.273Q162.867-55.273 167.945-52.051Q173.023-48.828 176.026-42.554Q179.029-36.279 179.029-27.197L179.029-27.197Q179.029-18.213 176.100-11.914Q173.170-5.615 168.067-2.319Q162.965 0.977 156.471 0.977L156.471 0.977Q151.832 0.977 148.707-0.610Q145.582-2.197 143.727-4.443Q141.871-6.689 140.895-8.643L140.895-8.643L140.357-8.643L140.357 20.410ZM153.053-9.473L153.053-9.473Q157.301-9.473 160.182-11.792Q163.063-14.111 164.527-18.140Q165.992-22.168 165.992-27.246L165.992-27.246Q165.992-32.324 164.552-36.304Q163.111-40.283 160.230-42.554Q157.350-44.824 153.053-44.824L153.053-44.824Q148.854-44.824 145.973-42.627Q143.092-40.430 141.603-36.499Q140.113-32.568 140.113-27.246L140.113-27.246Q140.113-21.924 141.603-17.920Q143.092-13.916 145.997-11.694Q148.902-9.473 153.053-9.473Z M213.686 1.123L213.686 1.123Q205.434 1.123 199.501-2.344Q193.568-5.811 190.370-12.109Q187.172-18.408 187.172-26.953L187.172-26.953Q187.172-35.400 190.321-41.748Q193.471-48.096 199.257-51.685Q205.043-55.273 212.855-55.273L212.855-55.273Q217.836-55.273 222.353-53.662Q226.869-52.051 230.360-48.682Q233.852-45.313 235.829-40.112Q237.807-34.912 237.807-27.734L237.807-27.734L237.807-23.730L193.178-23.730L193.178-32.373L231.508-32.373L225.551-29.834Q225.551-34.424 224.135-37.915Q222.719-41.406 219.911-43.359Q217.104-45.313 212.904-45.313L212.904-45.313Q208.705-45.313 205.775-43.335Q202.846-41.357 201.308-38.062Q199.770-34.766 199.770-30.713L199.770-30.713L199.770-24.756Q199.770-19.580 201.527-16.016Q203.285-12.451 206.459-10.645Q209.633-8.838 213.832-8.838L213.832-8.838Q216.615-8.838 218.886-9.644Q221.156-10.449 222.816-12.036Q224.477-13.623 225.307-15.918L225.307-15.918L236.977-13.525Q235.658-9.131 232.484-5.835Q229.311-2.539 224.550-0.708Q219.789 1.123 213.686 1.123Z M260.891 0L248.195 0L248.195-54.590L260.500-54.590L260.500-45.459L261.086-45.459Q262.551-50.195 266.213-52.759Q269.875-55.322 274.563-55.322L274.563-55.322Q275.637-55.322 276.955-55.225Q278.273-55.127 279.201-54.980L279.201-54.980L279.201-43.311Q278.420-43.555 276.662-43.750Q274.904-43.945 273.195-43.945L273.195-43.945Q269.680-43.945 266.872-42.432Q264.064-40.918 262.478-38.257Q260.891-35.596 260.891-32.129L260.891-32.129L260.891 0Z" fill="#EDEDEF"/></g></g><g transform="translate(820 234) scale(0.1787)"><g transform="translate(-1.270 72.754)"><path d="M43.896 0L34.033 0L45.996-72.754L55.859-72.754L43.896 0ZM57.227-18.799L1.270-18.799L2.930-28.662L58.887-28.662L57.227-18.799ZM18.359 0L8.496 0L20.410-72.754L30.273-72.754L18.359 0ZM61.426-44.043L5.518-44.043L7.178-53.955L63.037-53.955L61.426-44.043Z M86.717 0L73.680 0L73.680-72.754L120.262-72.754L120.262-61.768L86.717-61.768L86.717-39.941L116.990-39.941L116.990-29.102L86.717-29.102L86.717 0Z M147.506 0L134.469 0L134.469-72.754L181.051-72.754L181.051-61.768L147.506-61.768L147.506-39.941L177.779-39.941L177.779-29.102L147.506-29.102L147.506 0Z M208.295 0L195.258 0L195.258-72.754L241.840-72.754L241.840-61.768L208.295-61.768L208.295-39.941L238.568-39.941L238.568-29.102L208.295-29.102L208.295 0Z M269.084 0L256.047 0L256.047-72.754L302.629-72.754L302.629-61.768L269.084-61.768L269.084-39.941L299.357-39.941L299.357-29.102L269.084-29.102L269.084 0Z M329.873 0L316.836 0L316.836-72.754L363.418-72.754L363.418-61.768L329.873-61.768L329.873-39.941L360.146-39.941L360.146-29.102L329.873-29.102L329.873 0Z M390.662 0L377.625 0L377.625-72.754L424.207-72.754L424.207-61.768L390.662-61.768L390.662-39.941L420.936-39.941L420.936-29.102L390.662-29.102L390.662 0Z" fill="#8A8F98"/></g></g><rect x="1080" y="40" width="240" height="150" rx="10" fill="#8A8F98"/><g transform="translate(1080 212) scale(0.2030)"><g transform="translate(0.000 72.754)"><path d="M52.490 0L7.324 0L7.324-72.754L20.361-72.754L20.361-10.986L52.490-10.986L52.490 0Z M86.463 1.123L86.463 1.123Q78.504 1.123 72.645-2.417Q66.785-5.957 63.587-12.280Q60.389-18.604 60.389-27.002L60.389-27.002Q60.389-35.498 63.587-41.870Q66.785-48.242 72.645-51.758Q78.504-55.273 86.463-55.273L86.463-55.273Q94.471-55.273 100.330-51.758Q106.189-48.242 109.388-41.870Q112.586-35.498 112.586-27.002L112.586-27.002Q112.586-18.604 109.388-12.280Q106.189-5.957 100.330-2.417Q94.471 1.123 86.463 1.123ZM86.463-9.180L86.463-9.180Q90.906-9.180 93.860-11.572Q96.814-13.965 98.255-18.018Q99.695-22.070 99.695-27.051L99.695-27.051Q99.695-32.080 98.255-36.133Q96.814-40.186 93.860-42.578Q90.906-44.971 86.463-44.971L86.463-44.971Q82.020-44.971 79.114-42.578Q76.209-40.186 74.769-36.157Q73.328-32.129 73.328-27.051L73.328-27.051Q73.328-22.070 74.769-18.018Q76.209-13.965 79.114-11.572Q82.020-9.180 86.463-9.180Z  M142.104-54.590L173.109-54.590L173.109-44.629L142.104-44.629L142.104-54.590ZM149.867-14.307L149.867-67.578L162.563-67.578L162.563-15.381Q162.563-12.402 163.832-11.011Q165.102-9.619 167.982-9.619L167.982-9.619Q168.861-9.619 170.302-9.839Q171.742-10.059 172.621-10.254L172.621-10.254L174.623-0.439Q172.523 0.195 170.326 0.464Q168.129 0.732 166.127 0.732L166.127 0.732Q158.266 0.732 154.066-3.174Q149.867-7.080 149.867-14.307L149.867-14.307Z M206.789 1.123L206.789 1.123Q198.537 1.123 192.604-2.344Q186.672-5.811 183.474-12.109Q180.275-18.408 180.275-26.953L180.275-26.953Q180.275-35.400 183.425-41.748Q186.574-48.096 192.360-51.685Q198.146-55.273 205.959-55.273L205.959-55.273Q210.939-55.273 215.456-53.662Q219.973-52.051 223.464-48.682Q226.955-45.313 228.933-40.112Q230.910-34.912 230.910-27.734L230.910-27.734L230.910-23.730L186.281-23.730L186.281-32.373L224.611-32.373L218.654-29.834Q218.654-34.424 217.238-37.915Q215.822-41.406 213.015-43.359Q210.207-45.313 206.008-45.313L206.008-45.313Q201.809-45.313 198.879-43.335Q195.949-41.357 194.411-38.062Q192.873-34.766 192.873-30.713L192.873-30.713L192.873-24.756Q192.873-19.580 194.631-16.016Q196.389-12.451 199.563-10.645Q202.736-8.838 206.936-8.838L206.936-8.838Q209.719-8.838 211.989-9.644Q214.260-10.449 215.920-12.036Q217.580-13.623 218.410-15.918L218.410-15.918L230.080-13.525Q228.762-9.131 225.588-5.835Q222.414-2.539 217.653-0.708Q212.893 1.123 206.789 1.123Z M250.723 0L237.002 0L258.242-32.959L258.193-23.096L238.076-54.590L252.041-54.590L257.607-45.313Q260.049-41.162 261.953-37.207Q263.857-33.252 265.811-29.541L265.811-29.541L260.537-29.541Q262.588-33.203 264.419-37.183Q266.250-41.162 268.740-45.313L268.740-45.313L274.502-54.590L288.174-54.590L267.764-22.900L267.764-32.520L289.004 0L275.137 0L268.398-10.938Q265.957-15.088 264.028-18.994Q262.100-22.900 260.146-26.465L260.146-26.465L265.420-26.465Q263.467-22.900 261.685-18.994Q259.902-15.088 257.461-10.938L257.461-10.938L250.723 0Z M291.922-54.590L322.928-54.590L322.928-44.629L291.922-44.629L291.922-54.590ZM299.686-14.307L299.686-67.578L312.381-67.578L312.381-15.381Q312.381-12.402 313.650-11.011Q314.920-9.619 317.801-9.619L317.801-9.619Q318.680-9.619 320.120-9.839Q321.561-10.059 322.439-10.254L322.439-10.254L324.441-0.439Q322.342 0.195 320.145 0.464Q317.947 0.732 315.945 0.732L315.945 0.732Q308.084 0.732 303.885-3.174Q299.686-7.080 299.686-14.307L299.686-14.307Z" fill="#EDEDEF"/></g></g><g transform="translate(1080 234) scale(0.1738)"><g transform="translate(-1.270 73.782)"><path d="M43.896 0L34.033 0L45.996-72.754L55.859-72.754L43.896 0ZM57.227-18.799L1.270-18.799L2.930-28.662L58.887-28.662L57.227-18.799ZM18.359 0L8.496 0L20.410-72.754L30.273-72.754L18.359 0ZM61.426-44.043L5.518-44.043L7.178-53.955L63.037-53.955L61.426-44.043Z M98.338 0.977L98.338 0.977Q90.477 0.977 84.373-1.685Q78.270-4.346 74.827-8.960Q71.385-13.574 71.385-19.482L71.385-19.482Q71.385-24.023 73.387-27.881Q75.389-31.738 78.831-34.326Q82.273-36.914 86.570-37.646L86.570-37.646L86.570-38.086Q80.955-39.355 77.488-43.872Q74.021-48.389 74.021-54.248L74.021-54.248Q74.021-59.863 77.171-64.258Q80.320-68.652 85.813-71.191Q91.307-73.730 98.338-73.730L98.338-73.730Q105.320-73.730 110.813-71.191Q116.307-68.652 119.480-64.258Q122.654-59.863 122.654-54.248L122.654-54.248Q122.654-48.389 119.163-43.872Q115.672-39.355 110.154-38.086L110.154-38.086L110.154-37.646Q114.402-36.914 117.845-34.326Q121.287-31.738 123.313-27.881Q125.340-24.023 125.340-19.482L125.340-19.482Q125.340-13.574 121.873-8.960Q118.406-4.346 112.303-1.685Q106.199 0.977 98.338 0.977ZM98.338-9.082L98.338-9.082Q102.439-9.082 105.467-10.498Q108.494-11.914 110.179-14.478Q111.863-17.041 111.863-20.410L111.863-20.410Q111.863-23.926 110.105-26.587Q108.348-29.248 105.296-30.811Q102.244-32.373 98.338-32.373L98.338-32.373Q94.432-32.373 91.355-30.835Q88.279-29.297 86.521-26.611Q84.764-23.926 84.764-20.410L84.764-20.410Q84.764-17.041 86.424-14.502Q88.084-11.963 91.160-10.522Q94.236-9.082 98.338-9.082ZM98.338-42.236L98.338-42.236Q101.707-42.236 104.295-43.604Q106.883-44.971 108.396-47.388Q109.910-49.805 109.910-52.979L109.910-52.979Q109.910-56.152 108.445-58.496Q106.980-60.840 104.368-62.158Q101.756-63.477 98.338-63.477L98.338-63.477Q94.871-63.477 92.259-62.158Q89.646-60.840 88.206-58.496Q86.766-56.152 86.766-52.979L86.766-52.979Q86.766-49.805 88.230-47.388Q89.695-44.971 92.332-43.604Q94.969-42.236 98.338-42.236Z M149.068 0L134.811 0L160.201-72.754L176.754-72.754L202.730 0L188.424 0L175.484-37.793Q173.580-43.652 171.529-51.050Q169.479-58.447 166.988-67.871L166.988-67.871L169.723-67.871Q167.281-58.350 165.304-50.903Q163.326-43.457 161.568-37.793L161.568-37.793L149.068 0ZM187.936-18.018L149.605-18.018L149.605-28.516L187.936-28.516L187.936-18.018Z M239.105 0.977L239.105 0.977Q231.244 0.977 225.141-1.685Q219.037-4.346 215.595-8.960Q212.152-13.574 212.152-19.482L212.152-19.482Q212.152-24.023 214.154-27.881Q216.156-31.738 219.599-34.326Q223.041-36.914 227.338-37.646L227.338-37.646L227.338-38.086Q221.723-39.355 218.256-43.872Q214.789-48.389 214.789-54.248L214.789-54.248Q214.789-59.863 217.938-64.258Q221.088-68.652 226.581-71.191Q232.074-73.730 239.105-73.730L239.105-73.730Q246.088-73.730 251.581-71.191Q257.074-68.652 260.248-64.258Q263.422-59.863 263.422-54.248L263.422-54.248Q263.422-48.389 259.931-43.872Q256.439-39.355 250.922-38.086L250.922-38.086L250.922-37.646Q255.170-36.914 258.612-34.326Q262.055-31.738 264.081-27.881Q266.107-24.023 266.107-19.482L266.107-19.482Q266.107-13.574 262.641-8.960Q259.174-4.346 253.070-1.685Q246.967 0.977 239.105 0.977ZM239.105-9.082L239.105-9.082Q243.207-9.082 246.234-10.498Q249.262-11.914 250.946-14.478Q252.631-17.041 252.631-20.410L252.631-20.410Q252.631-23.926 250.873-26.587Q249.115-29.248 246.063-30.811Q243.012-32.373 239.105-32.373L239.105-32.373Q235.199-32.373 232.123-30.835Q229.047-29.297 227.289-26.611Q225.531-23.926 225.531-20.410L225.531-20.410Q225.531-17.041 227.191-14.502Q228.852-11.963 231.928-10.522Q235.004-9.082 239.105-9.082ZM239.105-42.236L239.105-42.236Q242.475-42.236 245.063-43.604Q247.650-44.971 249.164-47.388Q250.678-49.805 250.678-52.979L250.678-52.979Q250.678-56.152 249.213-58.496Q247.748-60.840 245.136-62.158Q242.523-63.477 239.105-63.477L239.105-63.477Q235.639-63.477 233.026-62.158Q230.414-60.840 228.974-58.496Q227.533-56.152 227.533-52.979L227.533-52.979Q227.533-49.805 228.998-47.388Q230.463-44.971 233.100-43.604Q235.736-42.236 239.105-42.236Z M293.498 0L280.461 0L280.461-72.754L327.043-72.754L327.043-61.768L293.498-61.768L293.498-39.941L323.771-39.941L323.771-29.102L293.498-29.102L293.498 0Z M364.443 1.025L364.443 1.025Q357.607 1.025 352.310-1.660Q347.012-4.346 343.740-9.033Q340.469-13.721 339.639-19.678L339.639-19.678L352.529-19.678Q353.506-15.479 356.558-12.866Q359.609-10.254 364.443-10.254L364.443-10.254Q369.521-10.254 373.037-13.232Q376.553-16.211 378.384-21.777Q380.215-27.344 380.215-35.107L380.215-35.107L379.727-35.107Q377.969-31.982 375.210-29.736Q372.451-27.490 368.984-26.270Q365.518-25.049 361.563-25.049L361.563-25.049Q355.215-25.049 350.063-28.101Q344.912-31.152 341.934-36.523Q338.955-41.895 338.955-48.730L338.955-48.730Q338.955-55.908 342.275-61.621Q345.596-67.334 351.504-70.605Q357.412-73.877 365.273-73.779L365.273-73.779Q370.449-73.779 375.356-71.973Q380.264-70.166 384.219-66.113Q388.174-62.061 390.518-55.298Q392.861-48.535 392.861-38.525L392.861-38.525Q392.861-29.150 390.884-21.826Q388.906-14.502 385.171-9.399Q381.436-4.297 376.187-1.636Q370.938 1.025 364.443 1.025ZM365.029-35.059L365.029-35.059Q367.959-35.059 370.474-36.182Q372.988-37.305 374.844-39.258Q376.699-41.211 377.749-43.750Q378.799-46.289 378.799-49.170L378.799-49.170Q378.799-52.930 377.041-56.104Q375.283-59.277 372.231-61.206Q369.180-63.135 365.225-63.135L365.225-63.135Q361.367-63.135 358.315-61.255Q355.264-59.375 353.457-56.177Q351.650-52.979 351.650-49.023L351.650-49.023Q351.650-45.117 353.408-41.943Q355.166-38.770 358.169-36.914Q361.172-35.059 365.029-35.059Z M431.873 0.977L431.873 0.977Q424.012 0.977 417.908-1.685Q411.805-4.346 408.362-8.960Q404.920-13.574 404.920-19.482L404.920-19.482Q404.920-24.023 406.922-27.881Q408.924-31.738 412.366-34.326Q415.809-36.914 420.105-37.646L420.105-37.646L420.105-38.086Q414.490-39.355 411.023-43.872Q407.557-48.389 407.557-54.248L407.557-54.248Q407.557-59.863 410.706-64.258Q413.855-68.652 419.349-71.191Q424.842-73.730 431.873-73.730L431.873-73.730Q438.855-73.730 444.349-71.191Q449.842-68.652 453.016-64.258Q456.189-59.863 456.189-54.248L456.189-54.248Q456.189-48.389 452.698-43.872Q449.207-39.355 443.689-38.086L443.689-38.086L443.689-37.646Q447.938-36.914 451.380-34.326Q454.822-31.738 456.849-27.881Q458.875-24.023 458.875-19.482L458.875-19.482Q458.875-13.574 455.408-8.960Q451.941-4.346 445.838-1.685Q439.734 0.977 431.873 0.977ZM431.873-9.082L431.873-9.082Q435.975-9.082 439.002-10.498Q442.029-11.914 443.714-14.478Q445.398-17.041 445.398-20.410L445.398-20.410Q445.398-23.926 443.641-26.587Q441.883-29.248 438.831-30.811Q435.779-32.373 431.873-32.373L431.873-32.373Q427.967-32.373 424.891-30.835Q421.814-29.297 420.057-26.611Q418.299-23.926 418.299-20.410L418.299-20.410Q418.299-17.041 419.959-14.502Q421.619-11.963 424.695-10.522Q427.771-9.082 431.873-9.082ZM431.873-42.236L431.873-42.236Q435.242-42.236 437.830-43.604Q440.418-44.971 441.932-47.388Q443.445-49.805 443.445-52.979L443.445-52.979Q443.445-56.152 441.980-58.496Q440.516-60.840 437.903-62.158Q435.291-63.477 431.873-63.477L431.873-63.477Q428.406-63.477 425.794-62.158Q423.182-60.840 421.741-58.496Q420.301-56.152 420.301-52.979L420.301-52.979Q420.301-49.805 421.766-47.388Q423.230-44.971 425.867-43.604Q428.504-42.236 431.873-42.236Z" fill="#8A8F98"/></g></g></svg>
