<svg xmlns="http://www.w3.org/2000/svg" width="450.44" height="85.70" viewBox="-5.91 -5.91 450.44 85.70" fill="none" role="img" aria-label="TrackTub"><g transform="translate(-4.053 72.754)"><path d="M26.514-61.768L4.053-61.768L4.053-72.754L61.963-72.754L61.963-61.768L39.551-61.768L39.551 0L26.514 0L26.514-61.768Z M82.449 0L69.754 0L69.754-54.590L82.059-54.590L82.059-45.459L82.645-45.459Q84.109-50.195 87.771-52.759Q91.434-55.322 96.121-55.322L96.121-55.322Q97.195-55.322 98.514-55.225Q99.832-55.127 100.760-54.980L100.760-54.980L100.760-43.311Q99.979-43.555 98.221-43.750Q96.463-43.945 94.754-43.945L94.754-43.945Q91.238-43.945 88.431-42.432Q85.623-40.918 84.036-38.257Q82.449-35.596 82.449-32.129L82.449-32.129L82.449 0Z M121.686 1.123L121.686 1.123Q116.510 1.123 112.359-0.757Q108.209-2.637 105.816-6.299Q103.424-9.961 103.424-15.332L103.424-15.332Q103.424-19.971 105.157-22.998Q106.891-26.025 109.845-27.832Q112.799-29.639 116.510-30.566Q120.221-31.494 124.225-31.885L124.225-31.885Q128.961-32.422 131.939-32.813Q134.918-33.203 136.310-34.082Q137.701-34.961 137.701-36.816L137.701-36.816L137.701-37.061Q137.701-39.746 136.627-41.626Q135.553-43.506 133.429-44.507Q131.305-45.508 128.180-45.508L128.180-45.508Q125.006-45.508 122.687-44.531Q120.367-43.555 118.902-41.992Q117.438-40.430 116.754-38.623L116.754-38.623L104.986-41.016Q106.598-45.850 109.967-48.999Q113.336-52.148 117.999-53.711Q122.662-55.273 128.131-55.273L128.131-55.273Q131.988-55.273 135.919-54.370Q139.850-53.467 143.121-51.318Q146.393-49.170 148.395-45.557Q150.396-41.943 150.396-36.475L150.396-36.475L150.396 0L138.238 0L138.238-7.520L137.750-7.520Q136.529-5.225 134.405-3.247Q132.281-1.270 129.132-0.073Q125.982 1.123 121.686 1.123ZM124.957-8.301L124.957-8.301Q128.912-8.301 131.769-9.863Q134.625-11.426 136.212-13.989Q137.799-16.553 137.799-19.580L137.799-19.580L137.799-26.025Q137.164-25.537 135.675-25.098Q134.186-24.658 132.354-24.316Q130.523-23.975 128.741-23.730Q126.959-23.486 125.738-23.340L125.738-23.340Q122.906-22.949 120.611-22.070Q118.316-21.191 117.022-19.604Q115.729-18.018 115.729-15.479L115.729-15.479Q115.729-13.135 116.925-11.548Q118.121-9.961 120.196-9.131Q122.271-8.301 124.957-8.301Z M184.555 1.123L184.555 1.123Q176.596 1.123 170.736-2.417Q164.877-5.957 161.679-12.280Q158.480-18.604 158.480-27.002L158.480-27.002Q158.480-35.498 161.679-41.870Q164.877-48.242 170.736-51.758Q176.596-55.273 184.555-55.273L184.555-55.273Q189.096-55.273 193.002-54.102Q196.908-52.930 199.984-50.708Q203.061-48.486 205.136-45.313Q207.211-42.139 208.090-38.135L208.090-38.135L196.225-35.645Q195.688-37.744 194.687-39.478Q193.686-41.211 192.221-42.432Q190.756-43.652 188.852-44.312Q186.947-44.971 184.652-44.971L184.652-44.971Q180.209-44.971 177.279-42.603Q174.350-40.234 172.885-36.206Q171.420-32.178 171.420-27.051L171.420-27.051Q171.420-22.021 172.885-17.969Q174.350-13.916 177.279-11.548Q180.209-9.180 184.652-9.180L184.652-9.180Q186.996-9.180 188.925-9.863Q190.854-10.547 192.343-11.816Q193.832-13.086 194.857-14.893Q195.883-16.699 196.371-18.896L196.371-18.896L208.236-16.406Q207.357-12.305 205.282-9.082Q203.207-5.859 200.106-3.589Q197.006-1.318 193.075-0.098Q189.145 1.123 184.555 1.123Z M237.561-27.686L227.746-17.188L227.746-32.568L229.748-32.568L249.426-54.590L264.318-54.590L240.197-27.686L237.561-27.686ZM228.820 0L216.125 0L216.125-72.754L228.820-72.754L228.820 0ZM265.588 0L250.354 0L232.482-24.854L241.076-33.838L265.588 0Z" fill="#FFFFFF"/><path d="M289.834-61.768L267.373-61.768L267.373-72.754L325.283-72.754L325.283-61.768L302.871-61.768L302.871 0L289.834 0L289.834-61.768Z M351.775 0.684L351.775 0.684Q346.160 0.684 341.937-1.709Q337.713-4.102 335.394-8.716Q333.074-13.330 333.074-19.873L333.074-19.873L333.074-54.590L345.770-54.590L345.770-21.826Q345.770-16.357 348.626-13.232Q351.482-10.107 356.463-10.107L356.463-10.107Q359.832-10.107 362.469-11.572Q365.105-13.037 366.595-15.869Q368.084-18.701 368.084-22.607L368.084-22.607L368.084-54.590L380.828-54.590L380.828 0L368.768 0L368.621-13.477L369.598-13.477Q367.303-6.348 362.811-2.832Q358.318 0.684 351.775 0.684Z M420.113 0.977L420.113 0.977Q415.475 0.977 412.350-0.610Q409.225-2.197 407.369-4.443Q405.514-6.689 404.537-8.643L404.537-8.643L403.707-8.643L403.707 0L391.305 0L391.305-72.754L404-72.754L404-45.557L404.537-45.557Q405.514-47.510 407.320-49.756Q409.127-52.002 412.228-53.638Q415.328-55.273 420.162-55.273L420.162-55.273Q426.510-55.273 431.588-52.051Q436.666-48.828 439.669-42.554Q442.672-36.279 442.672-27.197L442.672-27.197Q442.672-18.213 439.742-11.914Q436.813-5.615 431.710-2.319Q426.607 0.977 420.113 0.977ZM416.695-9.473L416.695-9.473Q420.943-9.473 423.824-11.792Q426.705-14.111 428.170-18.140Q429.635-22.168 429.635-27.246L429.635-27.246Q429.635-32.324 428.194-36.304Q426.754-40.283 423.873-42.554Q420.992-44.824 416.695-44.824L416.695-44.824Q412.496-44.824 409.615-42.627Q406.734-40.430 405.245-36.499Q403.756-32.568 403.756-27.246L403.756-27.246Q403.756-21.924 405.245-17.920Q406.734-13.916 409.640-11.694Q412.545-9.473 416.695-9.473Z" fill="#FFFFFF"/></g></svg>
